<?xml version="1.0" standalone="no"?>
<!DOCTYPE svg PUBLIC "-//W3C//DTD SVG 20010904//EN"
 "http://www.w3.org/TR/2001/REC-SVG-20010904/DTD/svg10.dtd">
<svg version="1.0" xmlns="http://www.w3.org/2000/svg"
 width="512.000000pt" height="512.000000pt" viewBox="0 0 512.000000 512.000000"
 preserveAspectRatio="xMidYMid meet">

<g transform="translate(0.000000,512.000000) scale(0.100000,-0.100000)"
fill="#000000" stroke="none">
<path d="M2380 5114 c-19 -2 -78 -9 -130 -14 -330 -36 -695 -160 -990 -336
-375 -224 -680 -529 -904 -904 -175 -292 -291 -632 -338 -990 -16 -123 -16
-497 0 -620 82 -623 356 -1150 820 -1581 256 -239 575 -425 922 -539 274 -91
491 -124 800 -124 228 0 329 9 530 50 689 141 1304 583 1674 1204 175 292 291
632 338 990 16 123 16 497 0 620 -47 358 -163 698 -338 990 -224 375 -529 680
-904 904 -289 173 -634 291 -980 336 -88 12 -438 21 -500 14z m530 -169 c58
-9 166 -31 240 -49 848 -211 1531 -892 1745 -1741 55 -219 69 -342 69 -595 0
-253 -14 -376 -69 -595 -170 -676 -642 -1256 -1270 -1565 -173 -85 -300 -132
-470 -175 -219 -55 -342 -69 -595 -69 -253 0 -376 14 -595 69 -846 213 -1527
894 -1740 1740 -55 219 -69 342 -69 595 0 253 14 376 69 595 170 676 642 1256
1270 1565 284 139 540 210 880 244 85 9 435 -4 535 -19z"/>
<path d="M2375 4629 c-405 -38 -782 -188 -1098 -437 -394 -311 -664 -754 -757
-1243 -87 -453 -20 -918 192 -1334 78 -154 221 -364 281 -413 25 -21 77 -11
100 20 27 36 19 61 -50 149 -282 365 -432 832 -409 1267 24 427 160 795 416
1118 657 831 1854 973 2699 321 88 -69 113 -77 149 -50 31 23 41 75 20 100
-23 29 -143 120 -229 176 -389 251 -861 368 -1314 326z"/>
<path d="M2513 4296 l-28 -24 -3 -164 c-4 -188 6 -236 51 -252 17 -6 37 -6 55
0 44 16 54 64 50 252 l-3 164 -28 24 c-15 13 -37 24 -47 24 -10 0 -32 -11 -47
-24z"/>
<path d="M1673 4075 c-37 -26 -35 -63 9 -143 56 -102 76 -123 117 -124 41 -1
71 29 71 72 0 27 -89 187 -113 202 -19 12 -61 9 -84 -7z"/>
<path d="M3363 4082 c-24 -15 -113 -175 -113 -202 0 -43 30 -73 71 -72 41 1
61 22 117 124 44 80 46 117 9 143 -23 16 -65 19 -84 7z"/>
<path d="M4031 3904 c-34 -43 -29 -60 51 -162 274 -351 427 -830 404 -1260
-24 -427 -160 -795 -416 -1118 -657 -831 -1854 -973 -2699 -321 -88 69 -113
77 -149 50 -31 -23 -41 -75 -20 -100 24 -29 144 -121 229 -175 170 -110 318
-179 502 -238 655 -208 1371 -77 1910 348 394 311 664 754 757 1243 87 453 20
918 -192 1334 -77 152 -176 299 -262 393 -39 42 -85 44 -115 6z"/>
<path d="M1575 3590 c-31 -12 -48 -38 -48 -71 0 -27 51 -82 412 -443 376 -376
412 -415 402 -434 -6 -11 -11 -49 -11 -84 0 -133 96 -228 230 -228 57 0 73 5
120 33 43 26 60 44 84 92 17 33 31 61 32 63 0 1 189 31 419 67 331 51 422 68
436 82 50 51 20 123 -52 123 -22 0 -218 -27 -436 -61 -375 -58 -397 -60 -406
-43 -16 28 -58 64 -99 85 -42 21 -146 26 -180 8 -19 -10 -58 26 -432 399 -226
226 -420 412 -431 415 -11 3 -29 2 -40 -3z m1042 -972 c51 -48 15 -138 -56
-138 -47 0 -81 32 -81 79 0 72 84 109 137 59z"/>
<path d="M1083 3473 c-41 -8 -68 -74 -45 -110 15 -24 175 -113 202 -113 69 0
98 82 46 126 -24 21 -170 105 -177 103 -2 -1 -14 -4 -26 -6z"/>
<path d="M3925 3434 c-100 -56 -116 -72 -117 -114 -1 -40 30 -70 72 -70 27 0
187 89 202 113 13 21 9 64 -9 85 -33 38 -62 35 -148 -14z"/>
<path d="M863 2633 c-27 -5 -63 -48 -63 -74 0 -10 11 -31 24 -46 l24 -28 164
-3 c188 -4 236 6 252 51 15 42 -3 80 -44 94 -33 11 -306 16 -357 6z"/>
<path d="M3900 2627 c-41 -14 -59 -52 -44 -94 16 -45 64 -55 252 -51 l164 3
24 28 c30 35 30 59 0 94 l-24 28 -169 2 c-113 2 -179 -1 -203 -10z"/>
<path d="M1130 1820 c-47 -28 -88 -56 -92 -63 -12 -19 -9 -61 7 -84 26 -37 63
-35 143 9 102 56 123 76 124 117 1 41 -29 71 -72 71 -15 0 -64 -23 -110 -50z"/>
<path d="M3830 1852 c-17 -13 -23 -29 -22 -53 1 -41 22 -61 124 -117 80 -44
117 -46 143 -9 16 23 19 65 7 84 -15 24 -175 113 -202 113 -16 0 -38 -8 -50
-18z"/>
<path d="M1782 1312 c-42 -6 -144 -177 -135 -225 10 -49 77 -75 115 -44 26 20
108 170 108 197 0 50 -37 80 -88 72z"/>
<path d="M3292 1309 c-25 -9 -42 -39 -42 -71 0 -26 83 -176 108 -195 21 -17
63 -16 89 2 36 25 35 63 -4 135 -67 123 -98 149 -151 129z"/>
<path d="M2511 1251 c-27 -27 -33 -84 -29 -256 3 -147 3 -147 31 -171 35 -30
59 -30 94 0 28 24 28 24 31 171 6 224 -9 275 -78 275 -16 0 -39 -9 -49 -19z"/>
</g>
</svg>
