<?xml version="1.0" encoding="UTF-8" standalone="no"?>
<!-- Created with Inkscape (http://www.inkscape.org/) -->

<svg
   width="159.70097mm"
   height="32.105911mm"
   viewBox="0 0 159.70097 32.105911"
   version="1.1"
   id="svg21"
   sodipodi:docname="dayna-logo.svg"
   inkscape:version="1.2.1 (9c6d41e, 2022-07-14)"
   xmlns:inkscape="http://www.inkscape.org/namespaces/inkscape"
   xmlns:sodipodi="http://sodipodi.sourceforge.net/DTD/sodipodi-0.dtd"
   xmlns="http://www.w3.org/2000/svg"
   xmlns:svg="http://www.w3.org/2000/svg">
  <sodipodi:namedview
     id="namedview21"
     pagecolor="#ffffff"
     bordercolor="#000000"
     borderopacity="0.25"
     inkscape:showpageshadow="2"
     inkscape:pageopacity="0.0"
     inkscape:pagecheckerboard="0"
     inkscape:deskcolor="#d1d1d1"
     inkscape:document-units="mm"
     showgrid="false"
     inkscape:zoom="1.3752273"
     inkscape:cx="295.5875"
     inkscape:cy="29.086101"
     inkscape:window-width="1512"
     inkscape:window-height="916"
     inkscape:window-x="0"
     inkscape:window-y="38"
     inkscape:window-maximized="0"
     inkscape:current-layer="layer1" />
  <defs
     id="defs18" />
  <g
     id="layer1"
     style="fill:none;fill-opacity:1;stroke:#000000;stroke-opacity:1"
     transform="translate(-11.008389,-23.678072)">
    <g
       id="g24708"
       transform="matrix(0.2372902,0,0,0.2372902,1.3303478,16.204631)"
       style="stroke-width:0.998777;stroke-dasharray:none">
      <g
         id="g8469"
         style="stroke-width:2.10712;stroke-dasharray:none">
        <path
           id="path12161"
           style="fill:none;fill-opacity:1;stroke:#fed043;stroke-width:2.10712;stroke-linejoin:round;stroke-dasharray:none;stroke-opacity:1;paint-order:stroke fill markers"
           d="m 108.24429,65.485043 c -18.465318,0.17162 -33.345258,15.118532 -33.351026,33.501137 0.0058,18.38261 14.885708,33.32952 33.351026,33.50114" />
        <path
           style="fill:none;fill-opacity:1;stroke:#fed043;stroke-width:2.10712;stroke-linecap:round;stroke-linejoin:round;stroke-dasharray:none;stroke-opacity:1;paint-order:stroke fill markers"
           d="m 107.75079,132.94712 v 32.79656"
           id="path22361" />
        <path
           style="fill:none;fill-opacity:1;stroke:#fed043;stroke-width:2.10712;stroke-linecap:round;stroke-linejoin:round;stroke-dasharray:none;stroke-opacity:1;paint-order:stroke fill markers"
           d="M 74.6358,99.548505 H 41.83924"
           id="path22361-04" />
        <path
           style="fill:none;fill-opacity:1;stroke:#fed043;stroke-width:2.10712;stroke-linecap:round;stroke-linejoin:round;stroke-dasharray:none;stroke-opacity:1;paint-order:stroke fill markers"
           d="m 75.114752,41.682914 16.39828,28.402657"
           id="path22361-04-7" />
        <path
           style="fill:none;fill-opacity:1;stroke:#fed043;stroke-width:2.10712;stroke-linecap:round;stroke-linejoin:round;stroke-dasharray:none;stroke-opacity:1;paint-order:stroke fill markers"
           d="M 79.419772,82.192587 51.017118,65.794307"
           id="path22361-04-8" />
        <path
           style="fill:none;fill-opacity:1;stroke:#fed043;stroke-width:2.10712;stroke-linecap:round;stroke-linejoin:round;stroke-dasharray:none;stroke-opacity:1;paint-order:stroke fill markers"
           d="m 75.244815,156.41797 16.39828,-28.40265"
           id="path22361-04-7-4" />
        <path
           style="fill:none;fill-opacity:1;stroke:#fed043;stroke-width:2.10712;stroke-linecap:round;stroke-linejoin:round;stroke-dasharray:none;stroke-opacity:1;paint-order:stroke fill markers"
           d="M 79.498416,115.92485 51.095762,132.32313"
           id="path22361-04-8-9" />
        <path
           style="fill:none;fill-opacity:1;stroke:#fed043;stroke-width:2.10712;stroke-linecap:round;stroke-linejoin:round;stroke-dasharray:none;stroke-opacity:1;paint-order:stroke fill markers"
           d="M 107.7382,65.345065 V 32.548505"
           id="path22361-0" />
      </g>
    </g>
    <g
       aria-label="DAYNA LANDSBOROUGH"
       id="text296"
       style="font-size:14.1037px;font-family:Avenir;-inkscape-font-specification:Avenir;direction:rtl;stroke:#fed043;stroke-width:0.507671;stroke-linejoin:round;paint-order:stroke fill markers">
      <path
         d="m 28.302802,43.909239 q 0.64877,0 1.071881,-0.310281 0.423111,-0.310282 0.676978,-0.846222 0.253866,-0.535941 0.352592,-1.25523 0.09873,-0.733392 0.09873,-1.56551 0,-1.932207 -0.564148,-2.93357 -0.550044,-1.015466 -1.636029,-1.015466 z m -1.438577,-9.153301 h 1.664236 q 1.02957,0 1.692444,0.451318 0.676978,0.437215 1.071881,1.184711 0.394904,0.733393 0.550045,1.67834 0.169244,0.944948 0.169244,1.960415 0,0.832118 -0.155141,1.734755 -0.141037,0.902637 -0.521837,1.650133 -0.380799,0.747496 -1.043673,1.241125 -0.648771,0.479526 -1.650133,0.479526 h -1.777066 z"
         style="font-family:'DINNeuzeitGrotesk LT BoldCond';-inkscape-font-specification:'DINNeuzeitGrotesk LT BoldCond';fill:#000000;stroke:none"
         id="path1275" />
      <path
         d="m 36.581661,41.835995 -0.902636,-4.738843 h -0.02821 l -0.902636,4.738843 z m -0.211555,-7.080057 2.341214,10.380323 h -1.509096 l -0.409007,-2.143762 h -2.270696 l -0.409007,2.143762 h -1.368059 l 2.186074,-10.380323 z"
         style="font-family:'DINNeuzeitGrotesk LT BoldCond';-inkscape-font-specification:'DINNeuzeitGrotesk LT BoldCond';fill:#000000;stroke:none"
         id="path1277" />
      <path
         d="m 40.008846,34.755938 1.128296,4.329836 h 0.02821 l 1.071881,-4.329836 h 1.438577 l -1.833481,6.191524 v 4.188799 H 40.40375 v -4.188799 l -1.903999,-6.191524 z"
         style="font-family:'DINNeuzeitGrotesk LT BoldCond';-inkscape-font-specification:'DINNeuzeitGrotesk LT BoldCond';fill:#000000;stroke:none"
         id="path1279" />
      <path
         d="m 46.186261,34.755938 2.115555,6.572324 h 0.02821 v -6.572324 h 1.368059 V 45.136261 H 48.259505 L 46.14395,38.563937 h -0.02821 v 6.572324 H 44.747684 V 34.755938 Z"
         style="font-family:'DINNeuzeitGrotesk LT BoldCond';-inkscape-font-specification:'DINNeuzeitGrotesk LT BoldCond';fill:#000000;stroke:none"
         id="path1281" />
      <path
         d="m 54.606161,41.835995 -0.902636,-4.738843 h -0.02821 l -0.902637,4.738843 z m -0.211555,-7.080057 2.341214,10.380323 h -1.509096 l -0.409007,-2.143762 h -2.270696 l -0.409007,2.143762 h -1.368059 l 2.186074,-10.380323 z"
         style="font-family:'DINNeuzeitGrotesk LT BoldCond';-inkscape-font-specification:'DINNeuzeitGrotesk LT BoldCond';fill:#000000;stroke:none"
         id="path1283" />
      <path
         d="m 62.8145,34.755938 v 9.082783 h 2.313007 v 1.29754 H 61.375923 V 34.755938 Z"
         style="font-family:'DINNeuzeitGrotesk LT BoldCond';-inkscape-font-specification:'DINNeuzeitGrotesk LT BoldCond';fill:#000000;stroke:none"
         id="path1285" />
      <path
         d="m 69.485541,41.835995 -0.902637,-4.738843 h -0.02821 l -0.902636,4.738843 z m -0.211556,-7.080057 2.341214,10.380323 H 70.106103 L 69.697096,42.992499 H 67.4264 l -0.409007,2.143762 h -1.368059 l 2.186074,-10.380323 z"
         style="font-family:'DINNeuzeitGrotesk LT BoldCond';-inkscape-font-specification:'DINNeuzeitGrotesk LT BoldCond';fill:#000000;stroke:none"
         id="path1287" />
      <path
         d="m 74.125647,34.755938 2.115555,6.572324 h 0.02821 v -6.572324 h 1.368059 v 10.380323 h -1.438578 l -2.115555,-6.572324 h -0.02821 v 6.572324 H 72.68707 V 34.755938 Z"
         style="font-family:'DINNeuzeitGrotesk LT BoldCond';-inkscape-font-specification:'DINNeuzeitGrotesk LT BoldCond';fill:#000000;stroke:none"
         id="path1289" />
      <path
         d="m 80.655654,43.909239 q 0.64877,0 1.071881,-0.310281 0.423111,-0.310282 0.676978,-0.846222 0.253866,-0.535941 0.352592,-1.25523 0.09873,-0.733392 0.09873,-1.56551 0,-1.932207 -0.564148,-2.93357 -0.550044,-1.015466 -1.636029,-1.015466 z m -1.438577,-9.153301 h 1.664236 q 1.02957,0 1.692444,0.451318 0.676978,0.437215 1.071881,1.184711 0.394904,0.733393 0.550045,1.67834 0.169244,0.944948 0.169244,1.960415 0,0.832118 -0.155141,1.734755 -0.141037,0.902637 -0.521837,1.650133 -0.3808,0.747496 -1.043673,1.241125 -0.648771,0.479526 -1.650133,0.479526 h -1.777066 z"
         style="font-family:'DINNeuzeitGrotesk LT BoldCond';-inkscape-font-specification:'DINNeuzeitGrotesk LT BoldCond';fill:#000000;stroke:none"
         id="path1291" />
      <path
         d="m 88.849893,37.2805 q -0.02821,-0.296177 -0.08462,-0.550044 -0.05642,-0.26797 -0.183348,-0.465422 -0.126934,-0.197452 -0.324385,-0.310282 -0.183348,-0.112829 -0.451319,-0.112829 -0.423111,0 -0.662874,0.324385 -0.239763,0.324385 -0.239763,0.7616 0,0.394903 0.197452,0.846222 0.211556,0.451318 0.775704,1.001362 l 1.170607,1.1424 q 0.366696,0.366696 0.606459,0.705185 0.253867,0.324385 0.394904,0.662874 0.15514,0.338489 0.211555,0.705185 0.07052,0.352592 0.07052,0.7616 0,0.53594 -0.169245,1.015466 -0.155141,0.465422 -0.465422,0.818015 -0.310281,0.352592 -0.789807,0.550044 -0.465422,0.211555 -1.071881,0.211555 -1.057778,0 -1.720652,-0.634666 -0.662874,-0.634666 -0.789807,-1.847585 l 1.368059,-0.437214 q 0.07052,0.719288 0.338489,1.212918 0.282074,0.479526 0.818014,0.479526 0.394904,0 0.719289,-0.310282 0.324385,-0.324385 0.324385,-0.959051 0,-0.423111 -0.225659,-0.902637 -0.211556,-0.49363 -0.789807,-1.071881 L 86.748442,39.762751 Q 86.043257,39.07167 85.747079,38.4229 q -0.282074,-0.64877 -0.282074,-1.41037 0,-0.578252 0.183348,-1.02957 0.197452,-0.465422 0.521837,-0.775704 0.324385,-0.324385 0.733392,-0.493629 0.423111,-0.169244 0.87443,-0.169244 1.071881,0 1.706548,0.606459 0.634666,0.606459 0.662873,1.664236 z"
         style="font-family:'DINNeuzeitGrotesk LT BoldCond';-inkscape-font-specification:'DINNeuzeitGrotesk LT BoldCond';fill:#000000;stroke:none"
         id="path1293" />
      <path
         d="m 92.925857,39.015255 h 0.225659 q 0.3808,0 0.719288,-0.07052 0.338489,-0.08462 0.578252,-0.253867 0.239763,-0.183348 0.3808,-0.479526 0.141037,-0.296177 0.141037,-0.719288 0,-0.733393 -0.409007,-1.114193 -0.394904,-0.394903 -1.353955,-0.394903 h -0.282074 z m 0,4.893984 q 1.128296,0 1.664236,-0.409007 0.535941,-0.409007 0.535941,-1.424474 0,-1.903999 -1.988622,-1.903999 h -0.211555 z m -1.438578,-9.153301 h 2.016829 q 0.87443,0 1.438578,0.253867 0.564148,0.253866 0.888533,0.634666 0.324385,0.3808 0.451318,0.846222 0.126933,0.451318 0.126933,0.860326 0,0.860325 -0.324385,1.382162 -0.324385,0.521837 -1.071881,0.846222 0.888533,0.282074 1.255229,0.973156 0.366697,0.676977 0.366697,1.56551 0,0.366696 -0.09873,0.888533 -0.09873,0.507734 -0.423111,0.987259 -0.324385,0.465422 -0.930845,0.803911 -0.592355,0.338489 -1.607821,0.338489 h -2.087348 z"
         style="font-family:'DINNeuzeitGrotesk LT BoldCond';-inkscape-font-specification:'DINNeuzeitGrotesk LT BoldCond';fill:#000000;stroke:none"
         id="path1295" />
      <path
         d="m 99.258411,40.171759 q 0,0.789807 0.04231,1.494992 0.05642,0.705185 0.183348,1.241125 0.141037,0.521837 0.3808,0.832119 0.23976,0.310281 0.63467,0.310281 0.3808,0 0.62056,-0.310281 0.23976,-0.324385 0.3667,-0.902637 0.14103,-0.592355 0.18334,-1.396266 0.0564,-0.818015 0.0564,-1.819378 0,-1.18471 -0.0987,-1.918103 -0.0846,-0.733392 -0.25386,-1.142399 -0.16925,-0.423111 -0.39491,-0.564148 -0.22566,-0.155141 -0.47952,-0.155141 -0.28208,0 -0.507736,0.211555 -0.22566,0.211556 -0.394904,0.719289 -0.155141,0.507733 -0.253867,1.339852 -0.08462,0.832118 -0.08462,2.05914 z M 97.749315,39.9461 q 0,-1.071882 0.11283,-2.045037 0.112829,-0.987259 0.423111,-1.720651 0.310281,-0.747496 0.832118,-1.184711 0.535941,-0.451318 1.382166,-0.451318 0.93084,0 1.46678,0.465422 0.55005,0.465422 0.83212,1.227021 0.28207,0.7616 0.35259,1.734756 0.0846,0.973155 0.0846,1.974518 0,1.071881 -0.11283,2.05914 -0.11282,0.973155 -0.42311,1.720651 -0.29617,0.733392 -0.83211,1.184711 -0.53595,0.437214 -1.36806,0.437214 -0.930847,0 -1.480892,-0.465422 -0.550044,-0.465422 -0.832118,-1.227021 -0.282074,-0.7616 -0.366696,-1.734756 -0.07052,-0.973155 -0.07052,-1.974517 z"
         style="font-family:'DINNeuzeitGrotesk LT BoldCond';-inkscape-font-specification:'DINNeuzeitGrotesk LT BoldCond';fill:#000000;stroke:none"
         id="path1297" />
      <path
         d="m 106.07048,39.156292 q 1.05778,0 1.55141,-0.366696 0.50773,-0.366696 0.50773,-1.283437 0,-0.64877 -0.409,-1.085984 -0.39491,-0.437215 -1.15651,-0.437215 h -0.49363 z m -1.43857,-4.400354 h 2.32711 q 0.59235,0 1.07188,0.211556 0.49363,0.197451 0.84622,0.564148 0.3667,0.366696 0.56415,0.902636 0.19745,0.521837 0.19745,1.170607 0,0.394904 -0.11283,0.803911 -0.11283,0.409008 -0.33849,0.7616 -0.21155,0.338489 -0.55004,0.606459 -0.33849,0.26797 -0.77571,0.394904 l 2.10146,4.964502 h -1.65014 l -1.904,-4.752947 h -0.33849 v 4.752947 h -1.43857 z"
         style="font-family:'DINNeuzeitGrotesk LT BoldCond';-inkscape-font-specification:'DINNeuzeitGrotesk LT BoldCond';fill:#000000;stroke:none"
         id="path1299" />
      <path
         d="m 112.31842,40.171759 q 0,0.789807 0.0423,1.494992 0.0564,0.705185 0.18335,1.241125 0.14103,0.521837 0.3808,0.832119 0.23976,0.310281 0.63466,0.310281 0.3808,0 0.62056,-0.310281 0.23977,-0.324385 0.3667,-0.902637 0.14104,-0.592355 0.18335,-1.396266 0.0564,-0.818015 0.0564,-1.819378 0,-1.18471 -0.0987,-1.918103 -0.0846,-0.733392 -0.25387,-1.142399 -0.16924,-0.423111 -0.3949,-0.564148 -0.22566,-0.155141 -0.47953,-0.155141 -0.28207,0 -0.50773,0.211555 -0.22566,0.211556 -0.3949,0.719289 -0.15515,0.507733 -0.25387,1.339852 -0.0846,0.832118 -0.0846,2.05914 z m -1.5091,-0.225659 q 0,-1.071882 0.11283,-2.045037 0.11283,-0.987259 0.42311,-1.720651 0.31028,-0.747496 0.83212,-1.184711 0.53594,-0.451318 1.38216,-0.451318 0.93085,0 1.46679,0.465422 0.55004,0.465422 0.83211,1.227021 0.28208,0.7616 0.3526,1.734756 0.0846,0.973155 0.0846,1.974518 0,1.071881 -0.11283,2.05914 -0.11283,0.973155 -0.42311,1.720651 -0.29618,0.733392 -0.83212,1.184711 -0.53594,0.437214 -1.36806,0.437214 -0.93084,0 -1.48089,-0.465422 -0.55004,-0.465422 -0.83211,-1.227021 -0.28208,-0.7616 -0.3667,-1.734756 -0.0705,-0.973155 -0.0705,-1.974517 z"
         style="font-family:'DINNeuzeitGrotesk LT BoldCond';-inkscape-font-specification:'DINNeuzeitGrotesk LT BoldCond';fill:#000000;stroke:none"
         id="path1301" />
      <path
         d="m 122.54358,42.569388 q 0,0.803911 -0.18334,1.339851 -0.18335,0.521837 -0.52184,0.846222 -0.32439,0.324385 -0.7757,0.451318 -0.45132,0.141037 -0.97316,0.141037 -0.53594,0 -1.00136,-0.141037 -0.45132,-0.126933 -0.78981,-0.451318 -0.32438,-0.324385 -0.50773,-0.846222 -0.18335,-0.53594 -0.18335,-1.339851 v -7.81345 h 1.43858 v 7.799346 q 0,0.239763 0.0282,0.507733 0.0423,0.26797 0.15514,0.49363 0.11283,0.211555 0.31029,0.352592 0.21155,0.141037 0.55004,0.141037 0.32439,0 0.52184,-0.141037 0.19745,-0.141037 0.31028,-0.352592 0.11283,-0.22566 0.14104,-0.49363 0.0423,-0.26797 0.0423,-0.507733 v -7.799346 h 1.43857 z"
         style="font-family:'DINNeuzeitGrotesk LT BoldCond';-inkscape-font-specification:'DINNeuzeitGrotesk LT BoldCond';fill:#000000;stroke:none"
         id="path1303" />
      <path
         d="m 127.66323,37.365122 q -0.0987,-0.719288 -0.35259,-1.114192 -0.25387,-0.409007 -0.70518,-0.409007 -0.28208,0 -0.50774,0.211555 -0.22566,0.211556 -0.3949,0.719289 -0.15514,0.507733 -0.25387,1.339852 -0.0846,0.832118 -0.0846,2.05914 0,0.789807 0.0423,1.494992 0.0564,0.705185 0.18335,1.241125 0.14104,0.521837 0.3808,0.832119 0.23976,0.310281 0.63467,0.310281 0.36669,0 0.59235,-0.253866 0.23976,-0.267971 0.3667,-0.733393 0.14103,-0.479526 0.19745,-1.1424 0.0564,-0.662873 0.0846,-1.466784 h -1.46678 v -1.297541 h 2.90536 v 1.198815 q 0,0.930844 -0.11283,1.833481 -0.11283,0.902637 -0.40901,1.607822 -0.29618,0.691081 -0.81801,1.128295 -0.52184,0.423111 -1.33985,0.423111 -0.93085,0 -1.48089,-0.465422 -0.55005,-0.465422 -0.83212,-1.227021 -0.28208,-0.7616 -0.3667,-1.734756 -0.0705,-0.973155 -0.0705,-1.974517 0,-1.071882 0.11283,-2.045037 0.11283,-0.987259 0.42311,-1.720651 0.31029,-0.747496 0.83212,-1.184711 0.53594,-0.451318 1.38217,-0.451318 0.53594,0 0.94494,0.169244 0.40901,0.169244 0.70519,0.479526 0.29618,0.296177 0.47952,0.719288 0.19746,0.423111 0.32439,0.930845 z"
         style="font-family:'DINNeuzeitGrotesk LT BoldCond';-inkscape-font-specification:'DINNeuzeitGrotesk LT BoldCond';fill:#000000;stroke:none"
         id="path1305" />
      <path
         d="m 130.6532,34.755938 h 1.43858 v 4.259317 h 2.07324 v -4.259317 h 1.43858 v 10.380323 h -1.43858 v -4.893984 h -2.07324 v 4.893984 h -1.43858 z"
         style="font-family:'DINNeuzeitGrotesk LT BoldCond';-inkscape-font-specification:'DINNeuzeitGrotesk LT BoldCond';fill:#000000;stroke:none"
         id="path1307" />
    </g>
    <g
       aria-label="COUNSELLING"
       id="text3248"
       style="font-size:5.29167px;font-family:'DINNeuzeitGrotesk LT BoldCond';-inkscape-font-specification:'DINNeuzeitGrotesk LT BoldCond';direction:rtl;fill:#a1c2b2;stroke:none;stroke-linejoin:round;paint-order:stroke fill markers">
      <path
         d="m 140.8653,35.8151 q -0.0476,-0.317501 -0.15875,-0.449792 -0.10583,-0.132292 -0.24341,-0.132292 -0.15875,0 -0.26459,0.127 -0.10054,0.127 -0.15875,0.333375 -0.0582,0.206375 -0.0847,0.47625 -0.0212,0.269876 -0.0212,0.555626 0,0.328083 0.0212,0.619125 0.0212,0.28575 0.0794,0.502709 0.0582,0.216958 0.15346,0.343958 0.10054,0.121709 0.25929,0.121709 0.11113,0 0.1905,-0.0635 0.0847,-0.06879 0.14288,-0.174625 0.0582,-0.105834 0.0952,-0.238126 0.037,-0.137583 0.0529,-0.280458 l 0.51859,0.185208 q -0.0318,0.216959 -0.10584,0.412751 -0.0688,0.1905 -0.1905,0.333375 -0.12171,0.142875 -0.30162,0.227542 -0.17463,0.08467 -0.41275,0.08467 -0.26988,0 -0.47096,-0.111125 -0.19579,-0.111125 -0.33338,-0.354542 -0.13229,-0.248708 -0.20108,-0.635 -0.0635,-0.391584 -0.0635,-0.952501 0,-0.1905 0.0106,-0.41275 0.0159,-0.22225 0.0529,-0.4445 0.0423,-0.22225 0.11113,-0.428625 0.0741,-0.206375 0.19579,-0.365126 0.127,-0.15875 0.30162,-0.254 0.17992,-0.09525 0.42863,-0.09525 0.34925,0 0.58208,0.216959 0.23813,0.216958 0.34925,0.672042 z"
         id="path1078" />
      <path
         d="m 142.38401,36.857559 q 0,0.296333 0.0159,0.560917 0.0212,0.264583 0.0688,0.465666 0.0529,0.195792 0.14288,0.312209 0.09,0.116417 0.23813,0.116417 0.14287,0 0.23283,-0.116417 0.09,-0.121708 0.13758,-0.338667 0.0529,-0.22225 0.0688,-0.523875 0.0212,-0.306917 0.0212,-0.682626 0,-0.4445 -0.037,-0.719667 -0.0317,-0.275167 -0.0952,-0.428625 -0.0635,-0.15875 -0.14817,-0.211667 -0.0847,-0.05821 -0.17991,-0.05821 -0.10584,0 -0.1905,0.07937 -0.0847,0.07937 -0.14817,0.269875 -0.0582,0.1905 -0.0952,0.502709 -0.0318,0.312208 -0.0318,0.772584 z m -0.56621,-0.08467 q 0,-0.402167 0.0423,-0.767292 0.0423,-0.370417 0.15875,-0.645584 0.11642,-0.280459 0.31221,-0.4445 0.20108,-0.169334 0.51859,-0.169334 0.34925,0 0.55033,0.174625 0.20637,0.174625 0.31221,0.460376 0.10583,0.28575 0.13229,0.650875 0.0317,0.365125 0.0317,0.740834 0,0.402167 -0.0423,0.772584 -0.0423,0.365125 -0.15875,0.645583 -0.11113,0.275167 -0.31221,0.444501 -0.20109,0.164041 -0.51329,0.164041 -0.34926,0 -0.55563,-0.174625 -0.20638,-0.174625 -0.31221,-0.460375 -0.10583,-0.28575 -0.13758,-0.650875 -0.0265,-0.365126 -0.0265,-0.740834 z"
         id="path1080" />
      <path
         d="m 146.22047,37.757142 q 0,0.301626 -0.0688,0.502709 -0.0688,0.195792 -0.19579,0.3175 -0.12171,0.121709 -0.29104,0.169334 -0.16933,0.05292 -0.36513,0.05292 -0.20108,0 -0.3757,-0.05292 -0.16934,-0.04762 -0.29634,-0.169334 -0.12171,-0.121708 -0.1905,-0.3175 -0.0688,-0.201083 -0.0688,-0.502709 v -2.931585 h 0.53975 v 2.926294 q 0,0.08996 0.0106,0.1905 0.0159,0.100542 0.0582,0.185208 0.0423,0.07937 0.11642,0.132292 0.0794,0.05292 0.20637,0.05292 0.12171,0 0.1958,-0.05292 0.0741,-0.05292 0.11641,-0.132292 0.0423,-0.08467 0.0529,-0.185208 0.0159,-0.100542 0.0159,-0.1905 v -2.926294 h 0.53975 z"
         id="path1082" />
      <path
         d="m 147.35288,34.825557 0.79375,2.465918 h 0.0106 v -2.465918 h 0.51329 v 3.894669 h -0.53975 l -0.79375,-2.465918 h -0.0106 v 2.465918 h -0.51329 v -3.894669 z"
         id="path1084" />
      <path
         d="m 150.42734,35.772766 q -0.0106,-0.111125 -0.0317,-0.206375 -0.0212,-0.100542 -0.0688,-0.174625 -0.0476,-0.07408 -0.12171,-0.116417 -0.0688,-0.04233 -0.16934,-0.04233 -0.15875,0 -0.2487,0.121708 -0.09,0.121709 -0.09,0.28575 0,0.148167 0.0741,0.317501 0.0794,0.169333 0.29104,0.375708 l 0.43921,0.428625 q 0.13759,0.137584 0.22754,0.264584 0.0952,0.121708 0.14817,0.248708 0.0582,0.127 0.0794,0.264584 0.0264,0.132292 0.0264,0.28575 0,0.201084 -0.0635,0.381 -0.0582,0.174625 -0.17462,0.306917 -0.11642,0.132292 -0.29633,0.206375 -0.17463,0.07938 -0.40217,0.07938 -0.39688,0 -0.64559,-0.238125 -0.2487,-0.238125 -0.29633,-0.693209 l 0.51329,-0.164041 q 0.0265,0.269875 0.127,0.455083 0.10584,0.179917 0.30692,0.179917 0.14817,0 0.26988,-0.116417 0.1217,-0.121708 0.1217,-0.359833 0,-0.15875 -0.0847,-0.338667 -0.0794,-0.185209 -0.29634,-0.402167 L 149.63888,36.7041 q -0.26458,-0.259292 -0.37571,-0.502709 -0.10583,-0.243416 -0.10583,-0.529167 0,-0.216958 0.0688,-0.386291 0.0741,-0.174626 0.19579,-0.291042 0.12171,-0.121709 0.27517,-0.185209 0.15875,-0.0635 0.32808,-0.0635 0.40217,0 0.64029,0.227542 0.23813,0.227542 0.24871,0.624417 z"
         id="path1086" />
      <path
         d="m 152.83505,34.825557 v 0.460376 h -0.87842 v 1.137709 h 0.87842 v 0.460375 h -0.87842 v 1.375834 h 0.87842 v 0.460375 h -1.41817 v -3.894669 z"
         id="path1088" />
      <path
         d="m 153.88808,34.825557 v 3.407836 h 0.86784 v 0.486833 h -1.40759 v -3.894669 z"
         id="path1090" />
      <path
         d="m 155.75075,34.825557 v 3.407836 h 0.86783 v 0.486833 H 155.211 v -3.894669 z"
         id="path1092" />
      <path
         d="m 157.07366,34.825557 h 0.53975 v 3.894669 h -0.53975 z"
         id="path1094" />
      <path
         d="m 158.81462,34.825557 0.79375,2.465918 h 0.0106 v -2.465918 h 0.5133 v 3.894669 h -0.53975 l -0.79375,-2.465918 h -0.0106 v 2.465918 h -0.51329 v -3.894669 z"
         id="path1096" />
      <path
         d="m 162.05312,35.804516 q -0.037,-0.269875 -0.13229,-0.418042 -0.0952,-0.153458 -0.26459,-0.153458 -0.10583,0 -0.1905,0.07937 -0.0847,0.07937 -0.14816,0.269875 -0.0582,0.1905 -0.0952,0.502709 -0.0317,0.312208 -0.0317,0.772584 0,0.296333 0.0159,0.560917 0.0212,0.264583 0.0688,0.465666 0.0529,0.195792 0.14288,0.312209 0.09,0.116417 0.23812,0.116417 0.13759,0 0.22225,-0.09525 0.09,-0.100542 0.13759,-0.275167 0.0529,-0.179917 0.0741,-0.428625 0.0212,-0.248709 0.0318,-0.550334 h -0.55033 v -0.486834 h 1.09008 v 0.449792 q 0,0.34925 -0.0423,0.687917 -0.0423,0.338667 -0.15346,0.603251 -0.11113,0.259291 -0.30692,0.423333 -0.19579,0.15875 -0.50271,0.15875 -0.34925,0 -0.55562,-0.174625 -0.20638,-0.174625 -0.31221,-0.460375 -0.10583,-0.28575 -0.13758,-0.650875 -0.0265,-0.365126 -0.0265,-0.740834 0,-0.402167 0.0423,-0.767292 0.0423,-0.370417 0.15875,-0.645584 0.11642,-0.280459 0.31221,-0.4445 0.20108,-0.169334 0.51858,-0.169334 0.20109,0 0.35455,0.0635 0.15345,0.0635 0.26458,0.179917 0.11112,0.111125 0.17992,0.269875 0.0741,0.15875 0.12171,0.34925 z"
         id="path1098" />
    </g>
    <g
       aria-label="PHSYCHOTHERAPY"
       id="text3982"
       style="font-size:5.29167px;font-family:'DINNeuzeitGrotesk LT BoldCond';-inkscape-font-specification:'DINNeuzeitGrotesk LT BoldCond';direction:rtl;fill:#a1c2b2;stroke:none;stroke-width:0.784606;stroke-linejoin:round;paint-order:stroke fill markers">
      <path
         d="m 139.9066,43.187952 q 0.17463,0 0.29105,-0.05821 0.11641,-0.0635 0.18521,-0.164042 0.0688,-0.105834 0.0952,-0.243417 0.0318,-0.142875 0.0318,-0.301625 0,-0.338667 -0.14288,-0.534459 -0.14288,-0.201083 -0.46038,-0.201083 z m -0.53975,-1.96321 h 0.54505 q 0.25929,0 0.47625,0.06879 0.21696,0.0635 0.36512,0.206375 0.15346,0.142875 0.23813,0.375709 0.0847,0.227542 0.0847,0.555625 0,0.269875 -0.0688,0.497417 -0.0635,0.22225 -0.20108,0.381 -0.13229,0.15875 -0.33338,0.248709 -0.20108,0.08996 -0.47625,0.08996 h -0.09 v 1.471084 h -0.53975 z"
         id="path1049" />
      <path
         d="m 141.52056,41.224742 h 0.53975 v 1.598085 h 0.77788 v -1.598085 h 0.53975 v 3.894669 h -0.53975 v -1.836209 h -0.77788 v 1.836209 h -0.53975 z"
         id="path1051" />
      <path
         d="m 145.13477,42.171951 q -0.0106,-0.111125 -0.0318,-0.206375 -0.0212,-0.100541 -0.0688,-0.174625 -0.0476,-0.07408 -0.12171,-0.116417 -0.0688,-0.04233 -0.16933,-0.04233 -0.15875,0 -0.24871,0.121708 -0.09,0.121709 -0.09,0.285751 0,0.148166 0.0741,0.3175 0.0794,0.169333 0.29104,0.375708 l 0.43921,0.428626 q 0.13759,0.137583 0.22754,0.264583 0.0953,0.121709 0.14817,0.248709 0.0582,0.127 0.0794,0.264583 0.0265,0.132292 0.0265,0.28575 0,0.201084 -0.0635,0.381 -0.0582,0.174626 -0.17462,0.306917 -0.11642,0.132292 -0.29633,0.206375 -0.17463,0.07938 -0.40217,0.07938 -0.39688,0 -0.64558,-0.238126 -0.24871,-0.238125 -0.29634,-0.693208 l 0.51329,-0.164042 q 0.0265,0.269875 0.127,0.455083 0.10584,0.179917 0.30692,0.179917 0.14817,0 0.26988,-0.116416 0.1217,-0.121709 0.1217,-0.359834 0,-0.15875 -0.0847,-0.338667 -0.0794,-0.185208 -0.29634,-0.402167 l -0.42333,-0.418042 q -0.26458,-0.259292 -0.37571,-0.502708 -0.10583,-0.243417 -0.10583,-0.529167 0,-0.216959 0.0688,-0.386292 0.0741,-0.174625 0.19579,-0.291042 0.12171,-0.121709 0.27517,-0.185209 0.15875,-0.0635 0.32808,-0.0635 0.40217,0 0.64029,0.227542 0.23813,0.227542 0.24871,0.624417 z"
         id="path1053" />
      <path
         d="m 146.50002,41.224742 0.42333,1.624543 h 0.0106 l 0.40217,-1.624543 h 0.53975 l -0.68792,2.323044 v 1.571625 h -0.53975 v -1.571625 l -0.71437,-2.323044 z"
         id="path1055" />
      <path
         d="m 149.67502,42.214285 q -0.0476,-0.3175 -0.15875,-0.449792 -0.10584,-0.132292 -0.24342,-0.132292 -0.15875,0 -0.26458,0.127 -0.10054,0.127 -0.15875,0.333375 -0.0582,0.206375 -0.0847,0.476251 -0.0212,0.269875 -0.0212,0.555625 0,0.328083 0.0212,0.619125 0.0212,0.28575 0.0794,0.502709 0.0582,0.216958 0.15345,0.343958 0.10055,0.121709 0.2593,0.121709 0.11112,0 0.1905,-0.0635 0.0847,-0.06879 0.14287,-0.174625 0.0582,-0.105834 0.0952,-0.238125 0.037,-0.137584 0.0529,-0.280459 l 0.51858,0.185209 q -0.0318,0.216958 -0.10583,0.41275 -0.0688,0.1905 -0.1905,0.333375 -0.12171,0.142875 -0.30163,0.227542 -0.17462,0.08467 -0.41275,0.08467 -0.26987,0 -0.47096,-0.111126 -0.19579,-0.111125 -0.33337,-0.354541 -0.13229,-0.248709 -0.20108,-0.635001 -0.0635,-0.391583 -0.0635,-0.9525 0,-0.1905 0.0106,-0.412751 0.0159,-0.22225 0.0529,-0.4445 0.0423,-0.22225 0.11112,-0.428625 0.0741,-0.206375 0.19579,-0.365125 0.127,-0.15875 0.30163,-0.254001 0.17991,-0.09525 0.42862,-0.09525 0.34925,0 0.58209,0.216959 0.23812,0.216958 0.34925,0.672042 z"
         id="path1057" />
      <path
         d="m 150.72806,41.224742 h 0.53975 v 1.598085 h 0.77787 v -1.598085 h 0.53975 v 3.894669 h -0.53975 v -1.836209 h -0.77787 v 1.836209 h -0.53975 z"
         id="path1059" />
      <path
         d="m 153.64376,43.256744 q 0,0.296333 0.0159,0.560917 0.0212,0.264583 0.0688,0.465667 0.0529,0.195791 0.14287,0.312208 0.09,0.116417 0.23813,0.116417 0.14287,0 0.23283,-0.116417 0.09,-0.121708 0.13759,-0.338667 0.0529,-0.22225 0.0688,-0.523875 0.0212,-0.306917 0.0212,-0.682625 0,-0.444501 -0.037,-0.719668 -0.0317,-0.275166 -0.0952,-0.428625 -0.0635,-0.15875 -0.14816,-0.211667 -0.0847,-0.05821 -0.17992,-0.05821 -0.10583,0 -0.1905,0.07937 -0.0847,0.07937 -0.14817,0.269875 -0.0582,0.1905 -0.0952,0.502709 -0.0318,0.312208 -0.0318,0.772584 z m -0.56621,-0.08467 q 0,-0.402167 0.0423,-0.767292 0.0423,-0.370417 0.15875,-0.645584 0.11641,-0.280458 0.31221,-0.4445 0.20108,-0.169334 0.51858,-0.169334 0.34925,0 0.55033,0.174626 0.20638,0.174625 0.31221,0.460375 0.10584,0.28575 0.13229,0.650875 0.0317,0.365125 0.0317,0.740834 0,0.402167 -0.0423,0.772584 -0.0423,0.365125 -0.15875,0.645583 -0.11113,0.275167 -0.31221,0.444501 -0.20108,0.164042 -0.51329,0.164042 -0.34925,0 -0.55563,-0.174626 -0.20637,-0.174625 -0.3122,-0.460375 -0.10584,-0.28575 -0.13759,-0.650875 -0.0265,-0.365125 -0.0265,-0.740834 z"
         id="path1061" />
      <path
         d="m 155.94563,41.711576 h -0.68792 v -0.486834 h 1.91559 v 0.486834 h -0.68792 v 3.407835 h -0.53975 z"
         id="path1063" />
      <path
         d="m 157.59134,41.224742 h 0.53975 v 1.598085 h 0.77787 v -1.598085 h 0.53975 v 3.894669 h -0.53975 v -1.836209 h -0.77787 v 1.836209 h -0.53975 z"
         id="path1065" />
      <path
         d="m 161.45954,41.224742 v 0.460376 h -0.87841 v 1.137709 h 0.87841 v 0.460375 h -0.87841 v 1.375834 h 0.87841 v 0.460375 h -1.41816 v -3.894669 z"
         id="path1067" />
      <path
         d="m 162.47554,42.875743 q 0.39688,0 0.58208,-0.137583 0.1905,-0.137583 0.1905,-0.481542 0,-0.243417 -0.15345,-0.407458 -0.14817,-0.164042 -0.43392,-0.164042 h -0.18521 z m -0.53975,-1.651001 h 0.87313 q 0.22225,0 0.40216,0.07938 0.18521,0.07408 0.3175,0.211666 0.13759,0.137584 0.21167,0.338667 0.0741,0.195792 0.0741,0.439209 0,0.148167 -0.0423,0.301625 -0.0423,0.153458 -0.127,0.28575 -0.0794,0.127 -0.20638,0.227542 -0.127,0.100542 -0.29104,0.148167 l 0.78846,1.862667 h -0.61912 l -0.71438,-1.783292 h -0.127 v 1.783292 h -0.53975 z"
         id="path1069" />
      <path
         d="m 165.60291,43.881161 -0.33866,-1.778001 h -0.0106 l -0.33866,1.778001 z m -0.0794,-2.656419 0.87842,3.894669 h -0.56621 l -0.15346,-0.804333 h -0.85196 l -0.15346,0.804333 h -0.51329 l 0.82021,-3.894669 z"
         id="path1071" />
      <path
         d="m 167.34387,43.187952 q 0.17463,0 0.29104,-0.05821 0.11642,-0.0635 0.18521,-0.164042 0.0688,-0.105834 0.0952,-0.243417 0.0318,-0.142875 0.0318,-0.301625 0,-0.338667 -0.14287,-0.534459 -0.14288,-0.201083 -0.46038,-0.201083 z m -0.53975,-1.96321 h 0.54504 q 0.25929,0 0.47625,0.06879 0.21696,0.0635 0.36513,0.206375 0.15346,0.142875 0.23812,0.375709 0.0847,0.227542 0.0847,0.555625 0,0.269875 -0.0688,0.497417 -0.0635,0.22225 -0.20109,0.381 -0.13229,0.15875 -0.33337,0.248709 -0.20108,0.08996 -0.47625,0.08996 h -0.09 v 1.471084 h -0.53975 z"
         id="path1073" />
      <path
         d="m 169.33354,41.224742 0.42333,1.624543 h 0.0106 l 0.40217,-1.624543 h 0.53975 l -0.68792,2.323044 v 1.571625 h -0.53975 v -1.571625 l -0.71437,-2.323044 z"
         id="path1075" />
    </g>
  </g>
</svg>
