<?xml version="1.0" encoding="UTF-8" standalone="no"?>
<svg
   width="256.98825"
   height="363.40851"
   viewBox="0 0 256.98824 363.40851"
   fill="none"
   version="1.1"
   id="svg10"
   sodipodi:docname="face.svg"
   inkscape:version="1.2.1 (9c6d41e, 2022-07-14)"
   xmlns:inkscape="http://www.inkscape.org/namespaces/inkscape"
   xmlns:sodipodi="http://sodipodi.sourceforge.net/DTD/sodipodi-0.dtd"
   xmlns="http://www.w3.org/2000/svg"
   xmlns:svg="http://www.w3.org/2000/svg">
  <defs
     id="defs14" />
  <sodipodi:namedview
     id="namedview12"
     pagecolor="#ffffff"
     bordercolor="#000000"
     borderopacity="0.25"
     inkscape:showpageshadow="2"
     inkscape:pageopacity="0.0"
     inkscape:pagecheckerboard="0"
     inkscape:deskcolor="#d1d1d1"
     showgrid="false"
     inkscape:zoom="0.6341331"
     inkscape:cx="-236.5434"
     inkscape:cy="97.771272"
     inkscape:window-width="1512"
     inkscape:window-height="916"
     inkscape:window-x="0"
     inkscape:window-y="38"
     inkscape:window-maximized="0"
     inkscape:current-layer="svg10" />
  <path
     opacity="0.5"
     d="M 0,108.019 C 0,173.555 12.7686,205 61.9893,205 111.21,205 203,180.454 203,114.918 203,49.382305 165.475,0 116.255,0 67.0339,0 0,42.483205 0,108.019 Z"
     fill="#e7bcb7"
     id="path4"
     style="fill:#a1c2b2;fill-opacity:1" />
  <path
     d="m 138.587,16.464605 c -6.349,0.8071 -26.528,4.7889 -29.81,5.8651 -8.8246,2.9057 -18.6178,9.1475 -29.2719,18.564 -3.1747,2.8518 -9.7931,11.1383 -14.2054,17.7568 -9.578,14.5285 -13.8288,25.881496 -17.0574,46.006495 -1.7756,11.031 -1.6142,40.679 0.2691,53.539 1.8295,12.323 7.2641,29.972 12.2145,39.819 2.0448,4.035 8.6632,13.99 11.4075,17.219 5.8113,6.833 10.2236,10.169 16.4654,12.483 3.6052,1.345 4.7351,1.507 10.7617,1.453 6.9415,0 9.2015,-0.484 13.9365,-2.906 5.004,-2.529 7.695,-6.457 8.394,-12.107 0.7,-5.596 0.377,-5.542 6.726,-1.291 11.677,7.802 27.173,13.99 41.702,16.627 12.645,2.314 18.779,2.529 35.298,1.291 l 4.09,-0.269 0.323,1.883 c 0.753,4.789 3.712,7.803 9.577,9.74 3.068,1.022 4.843,2.959 7.049,7.533 1.884,3.982 2.099,9.47 0.485,12.914 -1.884,4.143 -6.35,7.479 -11.892,8.932 -2.69,0.7 -14.098,0.915 -17.488,0.323 -1.184,-0.215 -3.013,-0.538 -4.035,-0.699 -3.444,-0.592 -13.13,-4.036 -18.026,-6.404 -5.758,-2.798 -18.349,-10.277 -23.676,-14.044 -4.897,-3.497 -9.201,-5.972 -15.712,-9.201 -7.856,-3.874 -11.461,-5.004 -18.618,-6.134 -5.273,-0.807 -11.461,0 -18.1335,2.314 -10.3312,3.659 -16.4116,8.824 -27.4424,23.299 -12.645,16.573 -13.0755,17.219 -12.8064,19.532 0.1614,1.615 1.6142,2.206 2.9056,1.13 0.4843,-0.376 3.2824,-3.982 6.2956,-8.017 2.9595,-3.982 7.1028,-9.578 9.2013,-12.376 7.587,-10.116 15.0664,-16.466 22.9758,-19.264 9.955,-3.605 19.802,-2.636 31.801,3.067 5.274,2.529 9.524,4.843 10.116,5.435 0.969,1.023 22.654,14.367 26.636,16.358 2.69,1.345 5.111,2.69 5.488,3.013 1.022,0.861 0.269,1.991 -2.152,3.229 -7.533,3.928 -14.206,13.452 -17.488,25.021 -4.197,14.905 -5.489,26.151 -5.489,48.75 0,13.722 0.054,14.905 0.969,15.712 1.238,1.13 1.937,1.13 2.852,0 0.592,-0.699 0.807,-5.004 1.076,-20.554 0.323,-17.865 0.484,-20.502 1.776,-28.304 2.852,-17.165 6.941,-27.173 13.775,-33.523 0.753,-0.699 2.905,-1.99 4.789,-2.851 3.39,-1.615 3.551,-1.615 10.492,-1.399 3.875,0.107 10.547,0.538 14.852,0.914 6.887,0.646 8.394,0.592 13.021,-0.161 2.852,-0.484 6.457,-1.453 8.072,-2.152 3.981,-1.776 8.125,-5.704 9.954,-9.417 1.345,-2.744 1.507,-3.659 1.507,-8.448 0,-5.165 -0.108,-5.542 -2.045,-9.578 -1.937,-3.982 -2.045,-4.304 -1.238,-5.542 0.485,-0.7 1.776,-1.722 2.906,-2.314 1.076,-0.592 2.798,-1.829 3.713,-2.744 2.314,-2.26 2.475,-5.381 0.43,-8.125 -0.699,-1.023 -1.722,-2.368 -2.206,-3.013 -1.13,-1.561 -0.699,-2.637 1.507,-3.821 0.968,-0.484 2.906,-1.991 4.358,-3.336 2.26,-2.099 2.691,-2.852 2.906,-4.95 0.269,-2.045 -0.054,-3.121 -1.991,-7.211 -2.583,-5.488 -2.906,-8.502 -1.076,-9.901 0.592,-0.43 3.228,-1.399 5.811,-2.098 5.865,-1.614 8.287,-3.121 10.116,-6.242 1.991,-3.444 1.668,-6.726 -1.291,-12.914 -2.529,-5.219 -7.21,-13.344 -10.493,-18.241 -7.156,-10.6 -9.685,-20.071 -11.138,-41.486 -1.238,-17.541999 -2.906,-27.011999 -6.995,-39.172995 -10.708,-31.5858 -31.694,-52.4097 -58.652,-58.1672 -8.125,-1.7219 -20.931,-2.3138 -28.572,-1.3452 z m 22.922,5.5422 c 10.655,1.6143 19.856,5.3271 29.165,11.7303 4.681,3.2285 13.828,12.5912 18.026,18.4564 5.757,8.1789 11.999,21.5775 14.905,32.177496 2.098,7.695 3.659,19.262999 4.896,36.966999 1.022,14.205 2.045,19.747 4.789,25.612 1.238,2.691 7.318,13.237 15.228,26.42 1.614,2.691 3.659,8.287 3.659,9.901 0,2.045 -2.368,4.628 -4.843,5.381 -2.529,0.753 -4.036,0 -5.811,-2.852 -0.646,-1.022 -2.206,-2.583 -3.552,-3.551 -2.098,-1.507 -2.798,-1.722 -5.865,-1.722 -6.188,0 -10.6,3.498 -10.6,8.448 0,1.991 0.323,2.69 2.045,4.52 1.883,2.045 2.206,2.152 5.865,2.475 l 3.82,0.323 0.377,3.282 c 0.215,1.776 0.807,4.305 1.345,5.542 0.915,2.099 0.915,2.26 0.054,3.068 -0.538,0.484 -1.453,0.861 -2.152,0.861 -3.283,0 -14.69,7.425 -18.833,12.268 -2.422,2.852 -3.713,3.497 -9.847,4.896 -6.296,1.453 -24.053,0.431 -36.698,-2.152 -12.806,-2.583 -27.119,-8.663 -37.989,-16.142 -7.533,-5.166 -6.995,-3.39 -6.941,-21.416 0,-19.694 -0.646,-25.559 -3.605,-31.317 -1.614,-3.282 -3.928,-5.112 -7.587,-6.188 -3.39,-0.968 -6.834,-0.699 -9.847,0.861 -2.5292,1.291 -4.0358,2.96 -5.381,6.027 -1.4528,3.336 -1.6143,12.483 -0.2691,17.918 1.9372,7.802 7.6951,16.788 16.0351,25.29 6.672,6.726 7.049,7.587 5.757,13.883 -0.914,4.358 -1.668,5.811 -4.304,8.071 -3.336,2.852 -7.587,3.82 -15.1743,3.444 -8.7708,-0.431 -12.1607,-1.938 -19.102,-8.61 -9.7932,-9.416 -18.1873,-25.505 -23.4606,-45.038 -2.529,-9.255 -3.7128,-19.801 -3.7128,-32.823 0,-21.685 2.7981,-34.814 10.6541,-50.848999 C 73.4786,64.838505 81.227,54.776305 96.401,42.830805 c 13.721,-10.7617 24.537,-16.4654 37.397,-19.694 7.587,-1.9371 19.371,-2.4213 27.711,-1.13 z m -54.077,6.5109 c 0,0.1076 -1.507,1.2376 -3.336,2.4752 -11.0849,7.4794 -24.3756,20.0168 -30.7789,29.0566 -4.2508,6.0265 -9.5241,14.5825 -13.1831,21.4695 -1.7756,3.389996 -3.2823,5.918996 -3.2823,5.595996 0,-1.184 3.3361,-10.384996 5.2194,-14.204996 2.1524,-4.52 7.049,-12.5914 9.5242,-15.8737 6.4032,-8.448 15.443,-17.434 21.7386,-21.6311 3.1209,-2.0447 11.5691,-6.3494 13.9901,-7.1027 0.054,-0.0538 0.108,0.0538 0.108,0.2152 z M 111.36,154.537 c 1.829,0.915 3.982,4.09 5.004,7.534 0.861,2.636 2.206,29.002 1.883,35.513 -0.053,0.754 -1.668,0.969 -1.668,0.269 0,-0.215 -1.722,-2.313 -3.82,-4.681 -6.296,-7.157 -10.869,-14.582 -12.376,-19.909 -1.0763,-3.821 -0.9687,-13.506 0.161,-15.605 2.26,-4.197 6.35,-5.381 10.816,-3.121 z m 122.683,31.156 c 1.507,0.322 3.068,2.044 3.068,3.282 0,1.614 -2.314,2.852 -5.381,2.852 -2.314,0 -3.283,-0.269 -4.197,-1.076 -1.292,-1.238 -1.561,-3.337 -0.485,-4.144 1.023,-0.861 3.767,-1.722 4.682,-1.506 0.43,0.107 1.452,0.376 2.313,0.592 z m 1.991,28.411 c 0,1.345 -7.102,5.542 -12.86,7.587 l -3.551,1.291 2.959,-2.798 c 3.175,-2.96 6.242,-4.789 10.224,-6.027 3.121,-0.968 3.228,-0.968 3.228,-0.053 z m -4.197,16.034 c 2.099,2.422 0.861,4.036 -4.251,5.758 -3.766,1.238 -5.919,1.399 -8.932,0.538 -1.722,-0.43 -2.26,-0.968 -3.067,-2.852 -1.614,-3.551 -1.022,-4.52 2.637,-4.789 1.668,-0.107 5.165,-0.107 7.856,0 3.982,0.216 4.95,0.431 5.757,1.345 z"
     fill="#aab5a2"
     id="path6" />
</svg>
