<?xml version="1.0" encoding="UTF-8" standalone="no"?>
<svg
   width="558.9162"
   height="363.68884"
   viewBox="0 0 558.9162 363.68884"
   fill="none"
   version="1.1"
   id="svg10"
   sodipodi:docname="faces.svg"
   inkscape:version="1.2.1 (9c6d41e, 2022-07-14)"
   xmlns:inkscape="http://www.inkscape.org/namespaces/inkscape"
   xmlns:sodipodi="http://sodipodi.sourceforge.net/DTD/sodipodi-0.dtd"
   xmlns="http://www.w3.org/2000/svg"
   xmlns:svg="http://www.w3.org/2000/svg">
  <defs
     id="defs14" />
  <sodipodi:namedview
     id="namedview12"
     pagecolor="#ffffff"
     bordercolor="#000000"
     borderopacity="0.25"
     inkscape:showpageshadow="2"
     inkscape:pageopacity="0.0"
     inkscape:pagecheckerboard="0"
     inkscape:deskcolor="#d1d1d1"
     showgrid="false"
     inkscape:zoom="0.59296482"
     inkscape:cx="182.13559"
     inkscape:cy="165.27119"
     inkscape:window-width="1309"
     inkscape:window-height="456"
     inkscape:window-x="0"
     inkscape:window-y="38"
     inkscape:window-maximized="0"
     inkscape:current-layer="svg10" />
  <path
     opacity="0.5"
     d="m 507.475,27.0445 c 49.279,37.0362 65.737,64.3685 38.035,101.2275 -27.702,36.86 -97.819,91.726 -147.098,54.69 C 349.132,145.926 333.119,89.918 360.821,53.0583 388.523,16.1989 458.196,-9.9916 507.475,27.0445 Z"
     fill="#a1c2b2"
     id="path2" />
  <path
     opacity="0.5"
     d="M 0,108.019 C 0,173.555 12.7686,205 61.9893,205 111.21,205 203,180.454 203,114.918 203,49.3823 165.475,0 116.255,0 67.0339,0 0,42.4832 0,108.019 Z"
     fill="#e7bcb7"
     id="path4" />
  <path
     d="m 138.587,16.4646 c -6.349,0.8071 -26.528,4.7889 -29.81,5.8651 -8.8246,2.9057 -18.6178,9.1475 -29.2719,18.564 C 76.3304,43.7455 69.712,52.032 65.2997,58.6505 55.7217,73.179 51.4709,84.532 48.2423,104.657 c -1.7756,11.031 -1.6142,40.679 0.2691,53.539 1.8295,12.323 7.2641,29.972 12.2145,39.819 2.0448,4.035 8.6632,13.99 11.4075,17.219 5.8113,6.833 10.2236,10.169 16.4654,12.483 3.6052,1.345 4.7351,1.507 10.7617,1.453 6.9415,0 9.2015,-0.484 13.9365,-2.906 5.004,-2.529 7.695,-6.457 8.394,-12.107 0.7,-5.596 0.377,-5.542 6.726,-1.291 11.677,7.802 27.173,13.99 41.702,16.627 12.645,2.314 18.779,2.529 35.298,1.291 l 4.09,-0.269 0.323,1.883 c 0.753,4.789 3.712,7.803 9.577,9.74 3.068,1.022 4.843,2.959 7.049,7.533 1.884,3.982 2.099,9.47 0.485,12.914 -1.884,4.143 -6.35,7.479 -11.892,8.932 -2.69,0.7 -14.098,0.915 -17.488,0.323 -1.184,-0.215 -3.013,-0.538 -4.035,-0.699 -3.444,-0.592 -13.13,-4.036 -18.026,-6.404 -5.758,-2.798 -18.349,-10.277 -23.676,-14.044 -4.897,-3.497 -9.201,-5.972 -15.712,-9.201 -7.856,-3.874 -11.461,-5.004 -18.618,-6.134 -5.273,-0.807 -11.461,0 -18.1335,2.314 -10.3312,3.659 -16.4116,8.824 -27.4424,23.299 -12.645,16.573 -13.0755,17.219 -12.8064,19.532 0.1614,1.615 1.6142,2.206 2.9056,1.13 0.4843,-0.376 3.2824,-3.982 6.2956,-8.017 2.9595,-3.982 7.1028,-9.578 9.2013,-12.376 7.587,-10.116 15.0664,-16.466 22.9758,-19.264 9.955,-3.605 19.802,-2.636 31.801,3.067 5.274,2.529 9.524,4.843 10.116,5.435 0.969,1.023 22.654,14.367 26.636,16.358 2.69,1.345 5.111,2.69 5.488,3.013 1.022,0.861 0.269,1.991 -2.152,3.229 -7.533,3.928 -14.206,13.452 -17.488,25.021 -4.197,14.905 -5.489,26.151 -5.489,48.75 0,13.722 0.054,14.905 0.969,15.712 1.238,1.13 1.937,1.13 2.852,0 0.592,-0.699 0.807,-5.004 1.076,-20.554 0.323,-17.865 0.484,-20.502 1.776,-28.304 2.852,-17.165 6.941,-27.173 13.775,-33.523 0.753,-0.699 2.905,-1.99 4.789,-2.851 3.39,-1.615 3.551,-1.615 10.492,-1.399 3.875,0.107 10.547,0.538 14.852,0.914 6.887,0.646 8.394,0.592 13.021,-0.161 2.852,-0.484 6.457,-1.453 8.072,-2.152 3.981,-1.776 8.125,-5.704 9.954,-9.417 1.345,-2.744 1.507,-3.659 1.507,-8.448 0,-5.165 -0.108,-5.542 -2.045,-9.578 -1.937,-3.982 -2.045,-4.304 -1.238,-5.542 0.485,-0.7 1.776,-1.722 2.906,-2.314 1.076,-0.592 2.798,-1.829 3.713,-2.744 2.314,-2.26 2.475,-5.381 0.43,-8.125 -0.699,-1.023 -1.722,-2.368 -2.206,-3.013 -1.13,-1.561 -0.699,-2.637 1.507,-3.821 0.968,-0.484 2.906,-1.991 4.358,-3.336 2.26,-2.099 2.691,-2.852 2.906,-4.95 0.269,-2.045 -0.054,-3.121 -1.991,-7.211 -2.583,-5.488 -2.906,-8.502 -1.076,-9.901 0.592,-0.43 3.228,-1.399 5.811,-2.098 5.865,-1.614 8.287,-3.121 10.116,-6.242 1.991,-3.444 1.668,-6.726 -1.291,-12.914 -2.529,-5.219 -7.21,-13.344 -10.493,-18.241 -7.156,-10.6 -9.685,-20.071 -11.138,-41.486 C 231.568,97.608 229.9,88.138 225.811,75.977 215.103,44.3912 194.117,23.5673 167.159,17.8098 159.034,16.0879 146.228,15.496 138.587,16.4646 Z m 22.922,5.5422 c 10.655,1.6143 19.856,5.3271 29.165,11.7303 4.681,3.2285 13.828,12.5912 18.026,18.4564 5.757,8.1789 11.999,21.5775 14.905,32.1775 2.098,7.695 3.659,19.263 4.896,36.967 1.022,14.205 2.045,19.747 4.789,25.612 1.238,2.691 7.318,13.237 15.228,26.42 1.614,2.691 3.659,8.287 3.659,9.901 0,2.045 -2.368,4.628 -4.843,5.381 -2.529,0.753 -4.036,0 -5.811,-2.852 -0.646,-1.022 -2.206,-2.583 -3.552,-3.551 -2.098,-1.507 -2.798,-1.722 -5.865,-1.722 -6.188,0 -10.6,3.498 -10.6,8.448 0,1.991 0.323,2.69 2.045,4.52 1.883,2.045 2.206,2.152 5.865,2.475 l 3.82,0.323 0.377,3.282 c 0.215,1.776 0.807,4.305 1.345,5.542 0.915,2.099 0.915,2.26 0.054,3.068 -0.538,0.484 -1.453,0.861 -2.152,0.861 -3.283,0 -14.69,7.425 -18.833,12.268 -2.422,2.852 -3.713,3.497 -9.847,4.896 -6.296,1.453 -24.053,0.431 -36.698,-2.152 -12.806,-2.583 -27.119,-8.663 -37.989,-16.142 -7.533,-5.166 -6.995,-3.39 -6.941,-21.416 0,-19.694 -0.646,-25.559 -3.605,-31.317 -1.614,-3.282 -3.928,-5.112 -7.587,-6.188 -3.39,-0.968 -6.834,-0.699 -9.847,0.861 -2.5292,1.291 -4.0358,2.96 -5.381,6.027 -1.4528,3.336 -1.6143,12.483 -0.2691,17.918 1.9372,7.802 7.6951,16.788 16.0351,25.29 6.672,6.726 7.049,7.587 5.757,13.883 -0.914,4.358 -1.668,5.811 -4.304,8.071 -3.336,2.852 -7.587,3.82 -15.1743,3.444 -8.7708,-0.431 -12.1607,-1.938 -19.102,-8.61 -9.7932,-9.416 -18.1873,-25.505 -23.4606,-45.038 -2.529,-9.255 -3.7128,-19.801 -3.7128,-32.823 0,-21.685 2.7981,-34.814 10.6541,-50.849 C 73.4786,64.8385 81.227,54.7763 96.401,42.8308 c 13.721,-10.7617 24.537,-16.4654 37.397,-19.694 7.587,-1.9371 19.371,-2.4213 27.711,-1.13 z m -54.077,6.5109 c 0,0.1076 -1.507,1.2376 -3.336,2.4752 C 93.0111,38.4723 79.7204,51.0097 73.3171,60.0495 69.0663,66.076 63.793,74.632 60.134,81.519 c -1.7756,3.39 -3.2823,5.919 -3.2823,5.596 0,-1.184 3.3361,-10.385 5.2194,-14.205 2.1524,-4.52 7.049,-12.5914 9.5242,-15.8737 6.4032,-8.448 15.443,-17.434 21.7386,-21.6311 3.1209,-2.0447 11.5691,-6.3494 13.9901,-7.1027 0.054,-0.0538 0.108,0.0538 0.108,0.2152 z m 3.928,126.0193 c 1.829,0.915 3.982,4.09 5.004,7.534 0.861,2.636 2.206,29.002 1.883,35.513 -0.053,0.754 -1.668,0.969 -1.668,0.269 0,-0.215 -1.722,-2.313 -3.82,-4.681 -6.296,-7.157 -10.869,-14.582 -12.376,-19.909 -1.0763,-3.821 -0.9687,-13.506 0.161,-15.605 2.26,-4.197 6.35,-5.381 10.816,-3.121 z m 122.683,31.156 c 1.507,0.322 3.068,2.044 3.068,3.282 0,1.614 -2.314,2.852 -5.381,2.852 -2.314,0 -3.283,-0.269 -4.197,-1.076 -1.292,-1.238 -1.561,-3.337 -0.485,-4.144 1.023,-0.861 3.767,-1.722 4.682,-1.506 0.43,0.107 1.452,0.376 2.313,0.592 z m 1.991,28.411 c 0,1.345 -7.102,5.542 -12.86,7.587 l -3.551,1.291 2.959,-2.798 c 3.175,-2.96 6.242,-4.789 10.224,-6.027 3.121,-0.968 3.228,-0.968 3.228,-0.053 z m -4.197,16.034 c 2.099,2.422 0.861,4.036 -4.251,5.758 -3.766,1.238 -5.919,1.399 -8.932,0.538 -1.722,-0.43 -2.26,-0.968 -3.067,-2.852 -1.614,-3.551 -1.022,-4.52 2.637,-4.789 1.668,-0.107 5.165,-0.107 7.856,0 3.982,0.216 4.95,0.431 5.757,1.345 z"
     fill="#aab5a2"
     id="path6" />
  <path
     d="m 398.805,25.8811 c -15.658,2.3676 -28.895,7.1566 -41.432,15.0126 -14.798,9.3089 -28.411,22.3306 -35.514,34.0073 -1.829,3.013 -2.798,4.197 -3.121,3.766 -0.323,-0.43 -0.377,-0.269 -0.161,0.377 0.215,0.538 0.161,1.291 -0.108,1.614 -0.269,0.323 -1.399,3.175 -2.475,6.35 -1.399,3.928 -3.175,7.533 -5.542,11.192 -6.242,9.793 -8.341,16.95 -9.578,33.307 -1.023,12.914 -1.991,19.425 -4.359,28.465 -1.722,6.726 -2.905,10.385 -8.663,26.743 -1.883,5.381 -2.744,10.816 -2.099,13.398 0.431,1.776 3.229,5.005 5.274,6.027 0.807,0.43 3.497,1.022 5.865,1.345 7.372,0.915 11.192,3.874 11.623,8.986 0.215,2.26 0,2.906 -2.207,6.242 -3.174,4.789 -3.228,6.188 -0.161,9.201 1.776,1.83 2.906,2.422 5.381,2.96 1.722,0.43 3.228,0.914 3.39,1.183 0.161,0.216 -0.431,1.077 -1.292,1.938 -2.152,1.991 -2.798,3.39 -2.798,6.134 0,2.475 0.969,4.304 3.229,6.08 0.753,0.592 2.206,1.83 3.228,2.798 l 1.884,1.668 0.269,9.632 c 0.269,9.363 0.323,9.686 1.937,13.075 2.798,5.919 6.188,9.04 11.73,10.924 3.551,1.237 13.398,1.237 18.725,0.053 2.153,-0.484 6.457,-0.914 9.578,-0.968 9.202,-0.108 13.506,2.206 17.811,9.363 5.273,8.932 7.748,23.675 8.34,50.203 0.323,14.744 0.431,16.089 1.346,16.573 1.399,0.7 2.959,-0.968 3.712,-3.928 2.099,-8.179 3.014,-10.708 5.919,-17.165 4.466,-9.739 7.264,-14.797 13.668,-24.859 8.017,-12.538 10.6,-16.843 13.344,-21.901 3.767,-7.102 7.856,-14.366 10.654,-19.102 1.399,-2.367 4.197,-7.102 6.242,-10.492 1.991,-3.39 6.941,-10.923 10.923,-16.681 3.982,-5.757 9.578,-13.883 12.43,-18.026 10.008,-14.528 15.927,-25.882 20.071,-38.473 4.735,-14.313 6.026,-23.622 6.026,-43.316 0,-18.241 -0.753,-25.129 -4.896,-45.737 -3.875,-19.156 -9.955,-34.814 -18.349,-47.567 -3.551,-5.3809 -12.807,-14.905 -17.865,-18.295 -7.318,-4.9503 -17.38,-9.0398 -27.496,-11.0845 -3.928,-0.8072 -21.147,-1.5066 -24.483,-1.0224 z M 421.728,31.8 c 20.017,3.3362 34.33,13.3984 45.683,32.1776 2.045,3.3364 5.596,10.7084 8.717,18.0794 l 1.023,2.422 -3.121,-3.498 C 462.838,68.444 458.318,64.139 451.807,59.8344 c -6.672,-4.3586 -12.215,-6.5109 -21.255,-8.2328 -10.923,-2.0447 -28.68,0.4843 -44.93,6.3494 -8.717,3.1209 -36.751,16.035 -52.033,23.891 -9.631,4.95 -11.084,5.542 -11.676,4.628 -0.431,-0.7 3.175,-7.91 5.488,-11.085 6.942,-9.6855 13.883,-16.7883 22.977,-23.6219 15.873,-11.9994 30.724,-18.1874 50.042,-21.0392 3.013,-0.4305 16.25,0.2152 21.308,1.0761 z m 8.717,25.2901 c 8.448,1.5066 13.506,3.4975 19.909,7.8561 9.201,6.2418 19.748,18.4558 24.86,28.8948 5.865,11.892 8.878,21.793 11.622,38.258 2.852,16.842 0.323,43.37 -5.704,60.804 -3.766,10.816 -11.622,25.721 -18.94,35.837 -14.475,20.232 -26.528,39.118 -37.02,58.328 -1.991,3.713 -4.843,8.717 -6.296,11.085 -1.399,2.421 -2.583,4.627 -2.583,4.896 0,0.323 -0.484,0.969 -1.13,1.561 -0.915,0.807 -1.184,0.861 -1.56,0.215 -0.269,-0.431 -0.377,-1.292 -0.269,-1.883 2.098,-9.74 2.044,-20.932 -0.323,-38.205 -1.345,-10.062 -1.722,-14.851 -1.776,-21.792 0,-9.309 0.108,-10.224 3.498,-28.142 3.551,-18.887 3.982,-31.155 1.614,-43.962 -2.045,-10.815 -3.39,-14.851 -7.749,-22.814 -4.842,-8.933 -9.846,-14.636 -18.563,-21.147 -12.645,-9.47 -25.829,-13.614 -41.218,-12.914 -12.968,0.592 -20.985,4.143 -26.043,11.569 -6.027,8.824 -8.663,16.949 -11.461,34.814 -1.507,9.793 -4.09,22.008 -6.135,29.056 -1.937,6.565 -5.542,11.838 -8.77,12.861 -1.399,0.484 -4.789,-1.023 -5.543,-2.476 -1.237,-2.313 -0.215,-7.317 3.982,-18.994 6.888,-19.317 8.556,-26.958 10.331,-48.159 1.077,-12.483 1.507,-15.12 3.767,-21.362 2.959,-8.232 6.618,-13.183 12.645,-17.057 6.726,-4.358 27.12,-14.797 40.087,-20.501 3.552,-1.561 9.955,-4.466 14.26,-6.457 9.309,-4.251 23.46,-9.1475 29.056,-10.0085 9.847,-1.5604 17.757,-1.6142 25.452,-0.1614 z m -65.539,63.4939 c 1.776,0.485 3.497,1.023 3.767,1.184 0.322,0.215 0.807,0.377 1.076,0.431 1.56,0.322 8.448,3.174 11.03,4.627 6.942,3.82 15.928,12.053 20.448,18.725 3.121,4.574 7.21,13.399 8.824,18.941 1.83,6.242 3.067,16.627 3.067,25.559 0,8.771 0,8.663 -3.067,24.322 -1.291,6.672 -2.636,15.012 -2.959,18.564 -0.861,9.308 -0.323,20.877 1.453,32.339 1.291,8.125 1.506,11.407 1.56,20.178 0,12.107 -0.861,17.38 -4.735,29.056 -2.26,6.834 -11.784,26.905 -12.753,26.905 -0.323,0 -0.538,-1.507 -0.538,-3.39 0,-8.663 -3.228,-29.487 -5.757,-36.967 -5.327,-15.766 -15.443,-20.77 -34.922,-17.218 -11.569,2.098 -19.102,0.86 -23.084,-3.875 -3.444,-4.089 -4.789,-9.954 -4.197,-18.617 0.377,-5.704 0.861,-6.565 4.52,-7.964 6.995,-2.637 11.246,-5.758 12.322,-9.094 1.937,-5.865 -8.448,-14.528 -23.945,-19.909 -3.982,-1.399 -3.982,-1.453 -3.659,-5.65 0.485,-5.865 -1.56,-9.685 -7.694,-14.367 -1.561,-1.13 -1.561,-1.184 -0.592,-2.69 3.336,-5.166 5.65,-13.183 8.932,-31.102 1.238,-6.51 2.852,-15.227 3.605,-19.371 1.668,-8.878 2.314,-11.084 4.843,-16.25 3.605,-7.425 12.268,-13.56 21.739,-15.443 2.851,-0.538 17.541,0.161 20.716,1.076 z M 317.554,230.3 c 1.722,0.753 2.96,1.507 2.798,1.668 -0.538,0.538 -7.694,-1.829 -8.501,-2.852 -0.7,-0.807 -0.592,-0.861 0.914,-0.538 0.915,0.162 3.067,0.915 4.789,1.722 z m 5.112,1.345 c 0.431,0.269 0.646,0.592 0.484,0.753 -0.161,0.162 -0.753,-0.053 -1.345,-0.484 -1.13,-0.861 -0.43,-1.076 0.861,-0.269 z m 10.923,8.179 c 3.552,2.045 3.713,2.852 1.023,5.22 -3.928,3.389 -11.246,4.896 -14.959,3.013 -2.26,-1.076 -3.982,-2.852 -3.982,-3.982 0,-1.937 1.184,-4.251 2.314,-4.681 4.627,-1.615 12.322,-1.399 15.604,0.43 z"
     fill="#aab5a2"
     id="path8" />
</svg>
