<?xml version="1.0" encoding="UTF-8" standalone="no"?>
<svg
   width="460.44772"
   height="371.68817"
   viewBox="0 0 460.44771 371.68817"
   fill="none"
   version="1.1"
   id="svg10"
   sodipodi:docname="faces.svg"
   inkscape:version="1.2.1 (9c6d41e, 2022-07-14)"
   xmlns:inkscape="http://www.inkscape.org/namespaces/inkscape"
   xmlns:sodipodi="http://sodipodi.sourceforge.net/DTD/sodipodi-0.dtd"
   xmlns="http://www.w3.org/2000/svg"
   xmlns:svg="http://www.w3.org/2000/svg">
  <defs
     id="defs14" />
  <sodipodi:namedview
     id="namedview12"
     pagecolor="#ffffff"
     bordercolor="#000000"
     borderopacity="0.25"
     inkscape:showpageshadow="2"
     inkscape:pageopacity="0.0"
     inkscape:pagecheckerboard="0"
     inkscape:deskcolor="#d1d1d1"
     showgrid="false"
     inkscape:zoom="0.6341331"
     inkscape:cx="-117.48322"
     inkscape:cy="97.771272"
     inkscape:window-width="1512"
     inkscape:window-height="916"
     inkscape:window-x="0"
     inkscape:window-y="38"
     inkscape:window-maximized="0"
     inkscape:current-layer="svg10" />
  <path
     opacity="0.5"
     d="m 148.96171,145.73326 c 33.07595,24.85861 44.12252,43.20398 25.529,67.94365 -18.59351,24.74034 -65.65588,61.56628 -98.731821,36.7078 -33.07662,-24.85848 -43.8245,-62.45091 -25.23099,-87.19105 18.59352,-24.73994 65.357861,-42.31894 98.433811,-17.4604 z"
     fill="#a1c2b2"
     id="path2"
     style="stroke-width:0.671198" />
  <path
     opacity="0.5"
     d="m 203.45947,108.019 c 0,65.536 12.7686,96.981 61.9893,96.981 49.2207,0 141.0107,-24.546 141.0107,-90.082 0,-65.535695 -37.525,-114.918 -86.745,-114.918 -49.2211,0 -116.255,42.483205 -116.255,108.019 z"
     fill="#e7bcb7"
     id="path4" />
  <path
     d="m 342.04647,16.464605 c -6.349,0.8071 -26.528,4.7889 -29.81,5.8651 -8.8246,2.9057 -18.6178,9.1475 -29.2719,18.564 -3.1747,2.8518 -9.7931,11.1383 -14.2054,17.7568 -9.578,14.5285 -13.8288,25.881496 -17.0574,46.006495 -1.7756,11.031 -1.6142,40.679 0.2691,53.539 1.8295,12.323 7.2641,29.972 12.2145,39.819 2.0448,4.035 8.6632,13.99 11.4075,17.219 5.8113,6.833 10.2236,10.169 16.4654,12.483 3.6052,1.345 4.7351,1.507 10.7617,1.453 6.9415,0 9.2015,-0.484 13.9365,-2.906 5.004,-2.529 7.695,-6.457 8.394,-12.107 0.7,-5.596 0.377,-5.542 6.726,-1.291 11.677,7.802 27.173,13.99 41.702,16.627 12.645,2.314 18.779,2.529 35.298,1.291 l 4.09,-0.269 0.323,1.883 c 0.753,4.789 3.712,7.803 9.577,9.74 3.068,1.022 4.843,2.959 7.049,7.533 1.884,3.982 2.099,9.47 0.485,12.914 -1.884,4.143 -6.35,7.479 -11.892,8.932 -2.69,0.7 -14.098,0.915 -17.488,0.323 -1.184,-0.215 -3.013,-0.538 -4.035,-0.699 -3.444,-0.592 -13.13,-4.036 -18.026,-6.404 -5.758,-2.798 -18.349,-10.277 -23.676,-14.044 -4.897,-3.497 -9.201,-5.972 -15.712,-9.201 -7.856,-3.874 -11.461,-5.004 -18.618,-6.134 -5.273,-0.807 -11.461,0 -18.1335,2.314 -10.3312,3.659 -16.4116,8.824 -27.4424,23.299 -12.645,16.573 -13.0755,17.219 -12.8064,19.532 0.1614,1.615 1.6142,2.206 2.9056,1.13 0.4843,-0.376 3.2824,-3.982 6.2956,-8.017 2.9595,-3.982 7.1028,-9.578 9.2013,-12.376 7.587,-10.116 15.0664,-16.466 22.9758,-19.264 9.955,-3.605 19.802,-2.636 31.801,3.067 5.274,2.529 9.524,4.843 10.116,5.435 0.969,1.023 22.654,14.367 26.636,16.358 2.69,1.345 5.111,2.69 5.488,3.013 1.022,0.861 0.269,1.991 -2.152,3.229 -7.533,3.928 -14.206,13.452 -17.488,25.021 -4.197,14.905 -5.489,26.151 -5.489,48.75 0,13.722 0.054,14.905 0.969,15.712 1.238,1.13 1.937,1.13 2.852,0 0.592,-0.699 0.807,-5.004 1.076,-20.554 0.323,-17.865 0.484,-20.502 1.776,-28.304 2.852,-17.165 6.941,-27.173 13.775,-33.523 0.753,-0.699 2.905,-1.99 4.789,-2.851 3.39,-1.615 3.551,-1.615 10.492,-1.399 3.875,0.107 10.547,0.538 14.852,0.914 6.887,0.646 8.394,0.592 13.021,-0.161 2.852,-0.484 6.457,-1.453 8.072,-2.152 3.981,-1.776 8.125,-5.704 9.954,-9.417 1.345,-2.744 1.507,-3.659 1.507,-8.448 0,-5.165 -0.108,-5.542 -2.045,-9.578 -1.937,-3.982 -2.045,-4.304 -1.238,-5.542 0.485,-0.7 1.776,-1.722 2.906,-2.314 1.076,-0.592 2.798,-1.829 3.713,-2.744 2.314,-2.26 2.475,-5.381 0.43,-8.125 -0.699,-1.023 -1.722,-2.368 -2.206,-3.013 -1.13,-1.561 -0.699,-2.637 1.507,-3.821 0.968,-0.484 2.906,-1.991 4.358,-3.336 2.26,-2.099 2.691,-2.852 2.906,-4.95 0.269,-2.045 -0.054,-3.121 -1.991,-7.211 -2.583,-5.488 -2.906,-8.502 -1.076,-9.901 0.592,-0.43 3.228,-1.399 5.811,-2.098 5.865,-1.614 8.287,-3.121 10.116,-6.242 1.991,-3.444 1.668,-6.726 -1.291,-12.914 -2.529,-5.219 -7.21,-13.344 -10.493,-18.241 -7.156,-10.6 -9.685,-20.071 -11.138,-41.486 -1.238,-17.541999 -2.906,-27.011999 -6.995,-39.172995 -10.708,-31.5858 -31.694,-52.4097 -58.652,-58.1672 -8.125,-1.7219 -20.931,-2.3138 -28.572,-1.3452 z m 22.922,5.5422 c 10.655,1.6143 19.856,5.3271 29.165,11.7303 4.681,3.2285 13.828,12.5912 18.026,18.4564 5.757,8.1789 11.999,21.5775 14.905,32.177496 2.098,7.695 3.659,19.262999 4.896,36.966999 1.022,14.205 2.045,19.747 4.789,25.612 1.238,2.691 7.318,13.237 15.228,26.42 1.614,2.691 3.659,8.287 3.659,9.901 0,2.045 -2.368,4.628 -4.843,5.381 -2.529,0.753 -4.036,0 -5.811,-2.852 -0.646,-1.022 -2.206,-2.583 -3.552,-3.551 -2.098,-1.507 -2.798,-1.722 -5.865,-1.722 -6.188,0 -10.6,3.498 -10.6,8.448 0,1.991 0.323,2.69 2.045,4.52 1.883,2.045 2.206,2.152 5.865,2.475 l 3.82,0.323 0.377,3.282 c 0.215,1.776 0.807,4.305 1.345,5.542 0.915,2.099 0.915,2.26 0.054,3.068 -0.538,0.484 -1.453,0.861 -2.152,0.861 -3.283,0 -14.69,7.425 -18.833,12.268 -2.422,2.852 -3.713,3.497 -9.847,4.896 -6.296,1.453 -24.053,0.431 -36.698,-2.152 -12.806,-2.583 -27.119,-8.663 -37.989,-16.142 -7.533,-5.166 -6.995,-3.39 -6.941,-21.416 0,-19.694 -0.646,-25.559 -3.605,-31.317 -1.614,-3.282 -3.928,-5.112 -7.587,-6.188 -3.39,-0.968 -6.834,-0.699 -9.847,0.861 -2.5292,1.291 -4.0358,2.96 -5.381,6.027 -1.4528,3.336 -1.6143,12.483 -0.2691,17.918 1.9372,7.802 7.6951,16.788 16.0351,25.29 6.672,6.726 7.049,7.587 5.757,13.883 -0.914,4.358 -1.668,5.811 -4.304,8.071 -3.336,2.852 -7.587,3.82 -15.1743,3.444 -8.7708,-0.431 -12.1607,-1.938 -19.102,-8.61 -9.7932,-9.416 -18.1873,-25.505 -23.4606,-45.038 -2.529,-9.255 -3.7128,-19.801 -3.7128,-32.823 0,-21.685 2.7981,-34.814 10.6541,-50.848999 10.9232,-22.330496 18.6716,-32.392696 33.8456,-44.338196 13.721,-10.7617 24.537,-16.4654 37.397,-19.694 7.587,-1.9371 19.371,-2.4213 27.711,-1.13 z m -54.077,6.5109 c 0,0.1076 -1.507,1.2376 -3.336,2.4752 -11.0849,7.4794 -24.3756,20.0168 -30.7789,29.0566 -4.2508,6.0265 -9.5241,14.5825 -13.1831,21.4695 -1.7756,3.389996 -3.2823,5.918996 -3.2823,5.595996 0,-1.184 3.3361,-10.384996 5.2194,-14.204996 2.1524,-4.52 7.049,-12.5914 9.5242,-15.8737 6.4032,-8.448 15.443,-17.434 21.7386,-21.6311 3.1209,-2.0447 11.5691,-6.3494 13.9901,-7.1027 0.054,-0.0538 0.108,0.0538 0.108,0.2152 z m 3.928,126.019295 c 1.829,0.915 3.982,4.09 5.004,7.534 0.861,2.636 2.206,29.002 1.883,35.513 -0.053,0.754 -1.668,0.969 -1.668,0.269 0,-0.215 -1.722,-2.313 -3.82,-4.681 -6.296,-7.157 -10.869,-14.582 -12.376,-19.909 -1.0763,-3.821 -0.9687,-13.506 0.161,-15.605 2.26,-4.197 6.35,-5.381 10.816,-3.121 z m 122.683,31.156 c 1.507,0.322 3.068,2.044 3.068,3.282 0,1.614 -2.314,2.852 -5.381,2.852 -2.314,0 -3.283,-0.269 -4.197,-1.076 -1.292,-1.238 -1.561,-3.337 -0.485,-4.144 1.023,-0.861 3.767,-1.722 4.682,-1.506 0.43,0.107 1.452,0.376 2.313,0.592 z m 1.991,28.411 c 0,1.345 -7.102,5.542 -12.86,7.587 l -3.551,1.291 2.959,-2.798 c 3.175,-2.96 6.242,-4.789 10.224,-6.027 3.121,-0.968 3.228,-0.968 3.228,-0.053 z m -4.197,16.034 c 2.099,2.422 0.861,4.036 -4.251,5.758 -3.766,1.238 -5.919,1.399 -8.932,0.538 -1.722,-0.43 -2.26,-0.968 -3.067,-2.852 -1.614,-3.551 -1.022,-4.52 2.637,-4.789 1.668,-0.107 5.165,-0.107 7.856,0 3.982,0.216 4.95,0.431 5.757,1.345 z"
     fill="#aab5a2"
     id="path6" />
  <path
     d="m 76.022669,144.95239 c -10.50961,1.58913 -19.39425,4.80349 -27.80906,10.07642 -9.93238,6.24811 -19.06939,14.98824 -23.83691,22.82562 -1.22762,2.02232 -1.87801,2.81701 -2.09481,2.52773 -0.21679,-0.28862 -0.25304,-0.18055 -0.10806,0.25304 0.14431,0.3611 0.10806,0.86652 -0.0725,1.08331 -0.18055,0.2168 -0.93901,2.13105 -1.66121,4.2621 -0.93901,2.63647 -2.13106,5.05613 -3.71978,7.51205 -4.189617,6.57303 -5.598461,11.37679 -6.428732,22.35557 -0.6866348,8.66785 -1.3363548,13.03802 -2.9257498,19.10564 -1.155803,4.51448 -1.949829,6.97039 -5.814585,17.94984 -1.26386504,3.61171 -1.84176604,7.25967 -1.40884404,8.99271 0.289286,1.19204 2.16729704,3.35934 3.53989604,4.04531 0.541657,0.28862 2.347178,0.68596 3.936574,0.90276 4.9480688,0.61415 7.5120428,2.60022 7.8013298,6.03138 0.144307,1.51691 0,1.9505 -1.481333,4.18962 -2.130382,3.21436 -2.166626,4.15337 -0.108063,6.17569 1.192047,1.22829 1.9505,1.62564 3.611717,1.98674 1.1558,0.28862 2.16662,0.61348 2.27536,0.79403 0.10806,0.14498 -0.28929,0.72288 -0.86719,1.30078 -1.44442,1.33635 -1.87801,2.27536 -1.87801,4.11713 0,1.66121 0.65039,2.88883 2.1673,4.08088 0.50541,0.39735 1.48066,1.22829 2.16662,1.87801 l 1.26454,1.11956 0.18055,6.46497 c 0.18055,6.28442 0.2168,6.50122 1.30011,8.77591 1.87801,3.97282 4.15337,6.06763 7.87315,7.33216 2.38342,0.83027 8.9927,0.83027 12.56817,0.0356 1.44509,-0.32486 4.33393,-0.61348 6.42873,-0.64972 6.17637,-0.0725 9.0652,1.48066 11.95471,6.28442 3.53922,5.99514 5.20043,15.8906 5.59778,33.69613 0.2168,9.89614 0.28929,10.7989 0.90344,11.12376 0.939,0.46984 1.98607,-0.64972 2.49148,-2.63646 1.40884,-5.48973 2.02299,-7.18719 3.97282,-11.52111 2.99756,-6.53679 4.87557,-9.93171 9.17392,-16.6853 5.381,-8.41548 7.1147,-11.30498 8.95647,-14.6999 2.5284,-4.76685 5.27292,-9.64243 7.150931,-12.82122 0.93901,-1.58872 2.81702,-4.76684 4.18962,-7.0422 1.33635,-2.27536 4.65878,-7.33149 7.33149,-11.19625 2.67271,-3.86408 6.42873,-9.31824 8.34299,-12.09901 6.71734,-9.75116 10.69016,-17.37194 13.4716,-25.82299 3.17812,-9.60685 4.04464,-15.85503 4.04464,-29.07359 0,-12.24332 -0.50541,-16.86653 -3.28618,-30.69857 -2.60089,-12.85746 -6.68177,-23.36707 -12.31581,-31.92685 -2.38342,-3.61164 -8.59603,-10.0042 -11.99094,-12.27956 -4.91183,-3.32263 -11.665421,-6.06749 -18.455251,-7.43989 -2.63647,-0.54179 -14.19382,-1.01122 -16.43293,-0.68623 z m 15.38586,3.97275 c 13.435361,2.23925 23.042211,8.99298 30.662321,21.59753 1.3726,2.23938 3.75602,7.18745 5.85083,12.13485 l 0.68663,1.62563 -2.0948,-2.34784 c -7.51205,-8.41481 -10.54586,-11.30431 -14.91603,-14.19355 -4.47823,-2.92548 -8.19868,-4.3701 -14.266301,-5.52583 -7.33149,-1.3724 -19.24995,0.32506 -30.15691,4.2617 -5.85083,2.09474 -24.66718,10.76265 -34.92442,16.03558 -6.46431,3.32242 -7.43956,3.71977 -7.8369,3.1063 -0.28929,-0.46984 2.13105,-5.30917 3.68353,-7.44022 4.65945,-6.50089 9.31823,-11.26827 15.42211,-15.85496 10.65392,-8.05397 20.62187,-12.20734 33.58807,-14.12146 2.02231,-0.28895 10.90695,0.14444 14.30187,0.72227 z m 5.85083,16.97466 c 5.670281,1.01122 9.065191,2.34751 13.362871,5.27299 6.17569,4.18948 13.25481,12.38748 16.68597,19.39412 3.93658,7.98188 5.9589,14.6274 7.80066,25.67867 1.91426,11.30431 0.2168,29.10984 -3.82851,40.8115 -2.52773,7.25967 -7.80066,17.26388 -12.71248,24.05372 -9.71559,13.57967 -17.80553,26.2559 -24.847741,39.14961 -1.33635,2.49216 -3.25061,5.85083 -4.22586,7.44022 -0.939,1.62497 -1.7337,3.10564 -1.7337,3.28619 0,0.2168 -0.32486,0.65039 -0.75845,1.04774 -0.61415,0.54165 -0.7947,0.5779 -1.04707,0.14431 -0.18055,-0.28929 -0.25304,-0.86719 -0.18055,-1.26387 1.40817,-6.53746 1.37193,-14.04951 -0.2168,-25.6431 -0.90276,-6.75359 -1.1558,-9.96796 -1.19205,-14.62674 0,-6.24818 0.0725,-6.86233 2.34785,-18.88884 2.38343,-12.67692 2.67271,-20.91117 1.08332,-29.5072 -1.3726,-7.259 -2.27536,-9.96796 -5.20111,-15.3127 -3.24994,-5.99581 -6.60861,-9.82365 -12.45944,-14.19382 -8.48729,-6.35624 -17.33636,-9.13768 -27.66542,-8.66784 -8.70409,0.39735 -14.08509,2.78077 -17.48,7.76508 -4.04531,5.92265 -5.81459,11.37613 -7.6926,23.36707 -1.011494,6.57304 -2.745198,14.77172 -4.117797,19.50232 -1.300109,4.40641 -3.7197768,7.94564 -5.8864028,8.63227 -0.939005,0.32486 -3.214365,-0.68663 -3.720448,-1.66188 -0.830271,-1.55248 -0.144307,-4.91115 2.672709,-12.74873 4.6232088,-12.96552 5.7427668,-18.09414 6.9341418,-32.3242 0.72288,-8.37856 1.011495,-10.14851 2.528402,-14.33813 1.986075,-5.52529 4.441985,-8.84839 8.487295,-11.44861 4.51447,-2.92508 18.20288,-9.93171 26.9063,-13.76022 2.38409,-1.04774 6.68177,-2.99757 9.57128,-4.33392 6.24817,-2.85326 15.74629,-6.13978 19.50231,-6.71768 6.60928,-1.04734 11.91845,-1.08345 17.08332,-0.10833 z m -43.98961,42.61694 c 1.19204,0.32553 2.34717,0.68664 2.5284,0.7947 0.21612,0.14431 0.54165,0.25304 0.7222,0.28929 1.04707,0.21612 5.67028,2.13038 7.40331,3.10563 4.65946,2.56397 10.69084,8.08994 13.72465,12.56817 2.09481,3.07006 4.83933,8.99338 5.92265,12.71316 1.22829,4.18961 2.05856,11.16 2.05856,17.15514 0,5.88707 0,5.81458 -2.05856,16.32487 -0.86652,4.47823 -1.76928,10.07602 -1.98608,12.46011 -0.5779,6.24751 -0.21679,14.01259 0.97525,21.70586 0.86652,5.45348 1.01083,7.65635 1.04707,13.54343 0,8.12619 -0.5779,11.66541 -3.17812,19.50231 -1.51691,4.58697 -7.90939,18.05858 -8.55978,18.05858 -0.2168,0 -0.3611,-1.0115 -0.3611,-2.27536 0,-5.81459 -2.16663,-19.79161 -3.86409,-24.81217 -3.57547,-10.5821 -10.3653,-13.94077 -23.43956,-11.55668 -7.76509,1.40818 -12.82122,0.57723 -15.49393,-2.60089 -2.3116,-2.74452 -3.21436,-6.6811 -2.81701,-12.49568 0.25304,-3.82851 0.5779,-4.40641 3.03381,-5.34542 4.69503,-1.76995 7.54829,-3.86476 8.2705,-6.10387 1.30011,-3.93658 -5.67028,-9.75116 -16.07183,-13.36287 -2.67271,-0.93901 -2.67271,-0.97525 -2.45591,-3.79227 0.32553,-3.93657 -1.04707,-6.50055 -5.164196,-9.6431 -1.047739,-0.75846 -1.047739,-0.7947 -0.397349,-1.80552 2.239115,-3.46741 3.792265,-8.8484 5.995135,-20.87559 0.83095,-4.3695 1.91426,-10.22033 2.41967,-13.00177 1.11956,-5.95889 1.55315,-7.43955 3.25061,-10.90696 2.41967,-4.98364 8.23425,-9.10144 14.59116,-10.36531 1.91359,-0.3611 11.77348,0.10807 13.90454,0.72221 z m -31.78255,73.64112 c 1.1558,0.50542 1.98674,1.0115 1.87801,1.11956 -0.36111,0.36111 -5.1642,-1.22762 -5.70585,-1.91425 -0.46984,-0.54166 -0.39735,-0.5779 0.61347,-0.36111 0.61415,0.10874 2.05856,0.61415 3.21437,1.1558 z m 3.43116,0.90277 c 0.28928,0.18055 0.43359,0.39734 0.32486,0.50541 -0.10807,0.10873 -0.50541,-0.0356 -0.90276,-0.32486 -0.75846,-0.5779 -0.28862,-0.72221 0.5779,-0.18055 z m 7.33149,5.48972 c 2.38409,1.3726 2.49216,1.91426 0.68663,3.50365 -2.63646,2.27469 -7.54828,3.28619 -10.04044,2.02232 -1.51691,-0.72221 -2.67271,-1.91426 -2.67271,-2.67271 0,-1.30011 0.7947,-2.85326 1.55315,-3.14187 3.10563,-1.08399 8.2705,-0.93901 10.47337,0.28861 z"
     fill="#aab5a2"
     id="path8"
     style="stroke-width:0.671198" />
</svg>
