<?xml version="1.0" standalone="no"?>
<!DOCTYPE svg PUBLIC "-//W3C//DTD SVG 20010904//EN"
 "http://www.w3.org/TR/2001/REC-SVG-20010904/DTD/svg10.dtd">
<svg version="1.0" xmlns="http://www.w3.org/2000/svg"
 width="512.000000pt" height="512.000000pt" viewBox="0 0 512.000000 512.000000"
 preserveAspectRatio="xMidYMid meet">

<g transform="translate(0.000000,512.000000) scale(0.100000,-0.100000)"
fill="#000000" stroke="none">
<path d="M3040 5109 c-280 -32 -578 -138 -809 -289 -288 -187 -525 -454 -672
-756 -286 -590 -243 -1287 115 -1839 l65 -100 -93 -94 -94 -93 -30 22 c-23 17
-38 21 -59 16 -19 -5 -234 -213 -710 -689 -644 -645 -684 -686 -715 -752 -30
-63 -33 -79 -33 -160 0 -77 4 -98 28 -150 37 -79 114 -156 191 -192 52 -23 74
-28 151 -28 81 0 97 3 160 33 66 31 107 70 752 715 476 476 684 691 689 710 5
21 1 36 -16 59 l-22 30 93 94 94 93 100 -65 c675 -438 1540 -398 2180 100 33
25 104 90 159 144 742 732 739 1926 -5 2659 -226 222 -456 361 -754 457 -228
73 -525 102 -765 75z m385 -149 c130 -15 235 -37 355 -76 770 -252 1267 -1020
1179 -1822 -13 -121 -41 -250 -80 -367 -40 -124 -146 -331 -227 -445 -86 -122
-290 -326 -412 -412 -181 -128 -439 -241 -645 -282 -391 -78 -761 -29 -1120
149 -341 169 -621 454 -785 798 -226 471 -226 1013 0 1484 313 656 1021 1053
1735 973z m-1505 -3215 l-90 -90 -87 88 -88 87 90 90 89 89 88 -87 88 -87 -90
-90z m-280 -110 l155 -155 -53 -52 -52 -53 -157 157 -158 158 50 50 c27 27 52
50 55 50 3 0 75 -70 160 -155z m-210 -210 l155 -155 -540 -541 c-297 -297
-553 -547 -568 -555 -41 -22 -115 -28 -167 -14 -86 23 -160 122 -160 215 0 90
-10 78 568 658 301 301 549 547 552 547 3 0 75 -70 160 -155z"/>
<path d="M3090 4814 c-261 -33 -503 -120 -712 -256 -156 -102 -187 -150 -133
-203 36 -37 64 -31 146 30 664 490 1594 327 2044 -360 102 -155 167 -311 207
-498 31 -146 31 -418 0 -564 -61 -284 -189 -520 -392 -723 -203 -203 -439
-331 -723 -392 -136 -29 -407 -31 -541 -5 -578 116 -1021 552 -1137 1120 -80
393 13 807 256 1136 61 82 67 110 30 146 -53 54 -101 23 -203 -133 -112 -172
-193 -371 -234 -575 -32 -158 -32 -423 0 -583 67 -338 225 -625 469 -855 474
-445 1177 -554 1760 -272 449 216 766 629 865 1128 32 158 32 423 0 582 -130
651 -618 1134 -1272 1258 -82 16 -358 28 -430 19z"/>
</g>
</svg>
