<svg width="181" height="242" viewBox="0 0 181 242" fill="none" xmlns="http://www.w3.org/2000/svg">
<path fill-rule="evenodd" clip-rule="evenodd" d="M63.3917 0.363971C63.6693 0.50025 64.2808 1.19387 64.7505 1.90572C65.2201 2.61757 66.7465 4.52942 68.1424 6.15426C71.684 10.2768 72.9996 13.1526 73.0119 16.7964C73.0215 19.7441 72.4353 21.5599 70.3172 25.143C69.5086 26.5112 68.842 28.0667 68.8356 28.6003C68.7903 32.4629 73.8933 44.0567 77.6139 48.5433C78.6655 49.8115 79.6854 50.9139 79.8803 50.9928C80.0757 51.0718 80.0018 49.8377 79.7162 48.2503C79.4308 46.6631 79.0977 44.6493 78.9763 43.7755C78.8549 42.9018 78.3489 40.5523 77.8519 38.5547C76.8625 34.5778 76.6545 32.4954 76.8401 28.4195C76.9931 25.0623 79.1826 18.8279 81.1563 16.1291C85.755 9.84127 87.1915 7.77445 87.8319 6.52391C88.6083 5.00796 89.2789 4.50038 89.8168 5.02114C90.2247 5.41591 91.2667 9.19539 92.1306 13.4129C92.8576 16.9626 92.6948 20.5938 91.6681 23.7272C90.8099 26.3468 89.8705 27.9994 86.5456 32.7393C83.813 36.6351 81.8336 40.6806 81.756 42.5305C81.6325 45.462 83.4528 54.8616 85.095 59.7752C85.6547 61.4502 86.4473 64.1023 86.8561 65.6694C87.2651 67.2363 87.9142 69.7251 88.2985 71.2001C88.6829 72.6752 89.2125 75.2741 89.4758 76.9753C89.7386 78.6763 90.0875 80.117 90.2505 80.1766C90.6928 80.3381 91.4253 77.3512 92.032 72.9134C92.9602 66.1173 93.8212 62.3607 95.4712 57.9027C99.5926 46.7688 104.902 40.0393 114.411 33.8963C120.029 30.2673 124.348 27.2307 125.393 26.1757C125.918 25.6461 126.719 24.8134 127.172 24.3246C127.864 23.5807 128.071 23.4844 128.448 23.7329C128.913 24.0387 129.258 25.1847 129.105 25.9179C129.057 26.1468 129.206 27.8536 129.435 29.711C131.237 44.3208 128.309 53.7893 119.504 61.825C116.733 64.3536 116.733 64.3536 105.919 69.3888C98.0915 73.034 94.9756 74.6094 94.6331 75.0949C94.0408 75.9341 92.1838 84.4738 91.9687 87.3471C91.8805 88.5259 92.0745 91.9874 92.3995 95.0396C92.9909 100.589 92.9909 100.589 96.2265 107.295C98.0061 110.982 99.7146 114.247 100.023 114.55C100.511 115.028 100.59 114.755 100.637 112.444C100.802 104.207 101.548 100.344 104.133 94.3526C107.26 87.1027 112.802 79.8041 118.618 75.2781C122.45 72.2955 129.323 68.9507 135.071 67.2714C137.652 66.517 141.024 65.7169 142.563 65.4931C146.418 64.9326 151.444 63.4518 154.822 61.8812C158.686 60.0848 158.903 60.3644 157.078 64.7823C156.285 66.704 155.416 69.7385 155.089 71.7337C154.085 77.8632 154.031 78.1815 153.384 81.7323C152.561 86.2445 150.376 92.2254 148.277 95.7099C144.112 102.623 138.626 107.527 128.033 113.804C122.493 117.088 121.565 117.751 118.755 120.437C113.345 125.607 111.954 128.277 111.221 134.902C110.512 141.301 110.758 143.71 112.986 152.18C114.696 158.686 115.053 159.692 119.962 171.894C127.765 191.285 130.64 197.732 134.457 204.4C138.447 211.371 140.421 214.219 143.126 216.908C145.553 219.32 147.622 220.985 147.751 220.63C147.803 220.49 147.37 219.047 146.79 217.424C146.21 215.801 145.303 212.2 144.774 209.422C143.812 204.372 143.812 204.372 141.345 200.069C139.988 197.703 137.621 193.765 136.086 191.319C132.716 185.95 131.596 183.601 129.962 178.473C128.285 173.213 127.717 170.506 127.46 166.545C126.731 155.353 129.925 144.975 137.172 134.99C140.307 130.672 146.576 124.878 155.312 118.228C159.198 115.27 163.345 111.304 165.011 108.951C167.458 105.496 168.624 101.545 168.241 98.0046C167.956 95.3679 168.607 95.0627 170.111 97.1279C170.763 98.0249 171.639 99.1074 172.056 99.5337C172.473 99.9599 173.758 102.156 174.912 104.414C176.89 108.283 177.058 108.767 177.83 112.829C178.654 117.156 178.825 123.587 178.182 126.1C177.391 129.194 177.626 136.2 178.754 143.212C180.544 154.336 180.738 157.959 179.844 163.565C178.685 170.826 175.599 177.038 170.412 182.553C166.592 186.613 159.466 191.145 152.33 194.052C149.608 195.161 147.827 196.036 147.554 196.4C146.443 197.879 146.432 205.793 147.535 210.748C148.473 214.967 153.287 225.299 154.864 226.482C158.132 228.932 166.566 234.24 172.186 237.384C173.586 238.167 174.846 239.055 174.987 239.358C175.3 240.031 174.506 241.169 173.769 241.105C173.193 241.054 169.795 239.41 167.659 238.148C164.395 236.219 159.347 233.091 158.176 232.271C157.466 231.775 155.542 230.429 153.901 229.283C152.259 228.135 150.885 227.13 150.847 227.048C150.643 226.61 131.954 211.962 127.659 208.875C125.754 207.506 125.754 207.506 118.808 210.719C111.972 213.881 111.793 213.944 107.528 214.715C105.144 215.145 101.771 215.494 100.032 215.489C90.1622 215.464 84.0037 213.323 73.3131 206.2C71.8156 205.202 69.1671 203.507 67.4276 202.433C65.6879 201.359 63.5418 200.017 62.6585 199.451C60.2454 197.905 56.3377 196.305 51.8653 195.032C49.1963 194.273 47.7585 193.676 47.5586 193.246C47.3004 192.691 47.4089 192.559 48.339 192.298C48.9334 192.131 50.4171 191.988 51.6366 191.981C52.8559 191.973 55.212 191.585 56.8727 191.117C59.5793 190.354 60.5674 189.886 66.4318 186.587C74.1153 182.265 82.3676 178.588 85.9048 177.909C89.1909 177.279 95.095 177.044 98.157 177.422C105.461 178.324 113.865 182.472 118.226 187.328C123.405 193.095 125.063 195.646 128.162 202.62C130.199 207.204 130.48 207.686 131.612 208.541C134.502 210.724 134.597 210.569 132.593 206.957C130.522 203.225 126.432 194.5 119.14 178.259C114.29 167.458 114.055 167 112.443 165.211C106.866 159.025 101.355 154.4 98.6774 153.659C97.0583 153.21 93.0617 153.228 87.8069 153.707C86.3196 153.843 83.3829 153.949 81.2811 153.944C69.3661 153.913 60.1398 149.891 52.9221 141.582C49.0475 137.122 47.6409 134.743 44.6442 127.582C43.1952 124.119 41.0619 119.021 39.9028 116.253C37.4887 110.484 37.5424 110.058 40.4587 111.86C43.4407 113.702 48.6334 115.682 51.5566 116.091C53.0995 116.307 54.4631 116.436 54.587 116.378C54.8157 116.272 63.1746 116.903 65.3801 117.194C70.1157 117.817 77.0232 120.02 81.824 122.439C86.4621 124.775 94.0343 131.767 97.846 137.232C98.8163 138.623 100.71 142.306 103.31 147.861C107.29 156.361 107.29 156.361 109.755 158.508C111.496 160.024 112.233 160.489 112.263 160.09C112.287 159.779 111.691 157.468 110.939 154.955C110.188 152.441 109.131 148.721 108.591 146.688C108.051 144.655 106.854 140.983 105.931 138.528C105.008 136.074 103.381 131.68 102.315 128.765C97.7302 116.225 93.4072 107.286 89.1748 101.592C86.9253 98.5665 82.1993 93.7848 79.3548 91.6579C76.8687 89.798 74.1657 89.2567 70.3783 89.8597C61.1083 91.3355 54.4872 91.6275 48.9758 90.804C44.98 90.2068 37.0514 87.3321 33.5234 85.2015C29.4523 82.7425 23.8572 78.2281 19.1932 73.6389C15.348 69.8551 12.1728 66.9157 9.93598 65.0692C8.7741 64.1101 7.78825 63.25 7.74543 63.1579C7.65433 62.962 2.98513 60.2094 1.47133 59.4595C0.362746 58.9101 0.199004 58.2282 1.0776 57.8197C1.37428 57.6817 2.50826 57.6867 3.59742 57.8305C5.81935 58.1238 9.54226 58.1435 12.2426 57.8757C14.2784 57.6741 22.2829 55.8635 27.083 54.5187C30.7237 53.4991 37.7052 52.8092 41.6492 53.0798C48.1692 53.5272 56.4393 55.8424 60.5292 58.366C61.5798 59.0145 63.2901 60.0651 64.3297 60.7003C65.369 61.3359 67.0685 62.6599 68.1061 63.6425C69.9234 65.3638 70.8878 66.4711 74.1838 70.6217C76.2435 73.2158 80.4457 81.6282 82.6345 87.5393C84.3603 92.1994 84.3603 92.1994 86.9349 94.9389C88.3509 96.4454 89.6424 97.6629 89.8052 97.6444C90.5009 97.5644 88.9689 87.0574 86.8168 77.1509C86.2867 74.7101 85.6066 71.4746 85.3056 69.9608C84.5486 66.1533 82.1315 59.7632 80.3483 56.856C78.5805 53.9729 78.2803 53.569 75.1628 49.8709C71.7578 45.8328 70.5668 45.0561 67.2645 44.7221C65.7931 44.5733 64.4508 44.5156 64.2818 44.5942C64.1127 44.6728 61.9928 44.4543 59.5705 44.1083C50.4274 42.8029 43.3732 39.062 38.8461 33.1181C37.0267 30.7288 36.7123 30.1285 35.4986 26.7228C34.7618 24.6554 33.6983 21.9736 33.1352 20.7625C32.416 19.2158 32.2121 18.457 32.4493 18.2122C32.6504 18.0044 37.1595 19.4469 43.5977 21.7788C53.7704 25.4634 54.5702 25.8192 57.1519 27.8094C60.9256 30.7183 64.2723 34.0637 67.9247 38.5782C68.5159 39.3088 68.5218 39.1429 67.9795 37.0494C67.6448 35.758 67.141 33.5613 66.8599 32.1679C66.3683 29.7291 66.3114 29.6082 65.3373 28.9294C63.299 27.5097 61.0005 24.9177 60.1418 23.0708C58.302 19.1139 58.3916 15.3796 60.4995 8.1751C61.0679 6.23195 61.7074 3.74343 61.9202 2.6451C62.3473 0.443292 62.6371 -0.0060497 63.3917 0.363971ZM65.7463 7.17434C66.4674 7.96287 67.7997 10.0773 68.8412 12.0853C70.6232 15.5219 70.6667 15.6632 70.5422 17.6297C70.418 19.5896 69.2848 22.6873 68.8572 22.2347C68.7404 22.1113 68.5371 20.6975 68.4054 19.0926C68.0959 15.3262 67.1039 12.203 66.2356 12.2628C65.9009 12.2858 65.5851 12.4206 65.5334 12.5623C65.4816 12.704 65.6712 15.0817 65.955 17.8464C66.5138 23.2905 66.54 25.8795 66.0394 26.1123C65.3617 26.4274 63.6653 24.4037 62.5643 21.9663C61.2821 19.1276 61.0366 17.611 61.4519 15.0906C61.9642 11.9832 63.6276 6.18627 64.0655 5.98266C64.2954 5.87576 65.0456 6.40759 65.7463 7.17434ZM41.7913 24.021C50.0101 26.5078 54.0559 28.3942 57.7577 31.4662C60.5273 33.7644 65.3865 39.3126 64.1904 38.8111C60.8764 37.4211 57.3142 35.6154 54.2175 33.7561C52.1245 32.4993 50.2903 31.5864 50.141 31.7276C49.4395 32.3902 49.7239 33.2501 50.9968 34.3136C52.533 35.5976 57.3341 38.4867 60.6066 40.0963C61.8998 40.7323 63.0083 41.3614 63.0699 41.4939C63.2281 41.8342 59.9335 41.6104 57.2989 41.102C51.835 40.0475 46.7141 37.4842 43.1444 34.0174C41.0781 32.0104 40.501 31.2219 39.0978 28.4909C38.1976 26.739 37.3036 24.674 37.1114 23.9024C36.7615 22.4993 36.7615 22.4993 41.7913 24.021ZM89.3811 11.9212C90.1491 14.3579 90.1933 19.6871 89.468 22.3572C89.1359 23.579 88.4226 25.3825 87.8831 26.3651C86.9022 28.1501 83.272 33.209 83.1539 32.955C83.1195 32.8811 83.1191 31.8398 83.153 30.6413C83.1871 29.443 83.0567 27.1125 82.8639 25.4627C82.5748 22.9922 82.3979 22.3877 81.8598 22.0373C81.3098 21.6789 81.2628 21.4403 81.5638 20.5299C81.9839 19.2566 84.9624 14.7677 86.9792 12.3675C87.7583 11.4404 88.4921 10.5636 88.6103 10.4192C88.7341 10.2685 89.0617 10.9069 89.3811 11.9212ZM80.5563 24.8598C80.6425 25.4139 80.7085 27.1377 80.7026 28.6908C80.6967 30.2439 80.7043 32.2699 80.7194 33.1931C80.7537 35.2789 80.4462 36.7685 80.119 36.102C79.1523 34.1329 79.0953 26.9364 80.0291 24.7283C80.3967 23.8586 80.4005 23.8595 80.5563 24.8598ZM13.9499 60.3352C15.4187 60.1597 18.4857 59.4809 20.7655 58.8268C23.0453 58.1727 25.9003 57.4549 27.11 57.2315C29.3095 56.8251 29.3095 56.8251 31.1421 58.4127C32.1502 59.2858 33.8216 60.8776 34.8566 61.9501C35.8916 63.0226 38.2889 65.1174 40.1844 66.605C44.6445 70.1058 44.6546 70.1162 43.2512 69.8009C42.6162 69.6583 41.6407 69.4703 41.0833 69.3829C32.162 67.9849 9.18686 61.3861 11.0149 60.7467C11.1605 60.6959 12.4812 60.5107 13.9499 60.3352ZM13.7328 64.5155C14.2456 64.8003 14.5312 65.1437 14.4093 65.3293C14.2932 65.5058 13.7838 65.33 13.2777 64.9384C12.182 64.091 12.4764 63.8181 13.7328 64.5155ZM34.2206 55.8354C34.8459 55.7115 36.1327 55.6782 40.5341 55.6722C46.0161 55.6648 54.8986 58.0069 58.5384 60.4192C59.3631 60.966 60.2782 61.4369 60.5716 61.4659C60.8648 61.4949 61.2103 61.7451 61.3392 62.0223C61.4681 62.2995 62.5087 63.118 63.6518 63.8411C66.0609 65.3654 70.1744 69.4434 72.1865 72.3021C73.8314 74.6388 79.5554 86.6733 79.1757 86.9957C79.0368 87.114 77.3767 86.1536 75.4863 84.8621C69.5039 80.7742 64.1142 77.5899 59.3054 75.3024C53.9433 72.7517 50.1206 70.7833 49.5062 70.2564C49.2718 70.0554 48.1777 69.2956 47.0746 68.5682C44.7711 67.0492 39.7001 63.1747 39.5263 62.8008C39.4619 62.6623 38.298 61.5858 36.9394 60.4082C34.4476 58.2484 32.728 56.2216 33.2495 56.0595C33.4049 56.0114 33.842 55.9103 34.2206 55.8354ZM16.5874 65.9076C17.3816 66.1145 19.9142 66.8466 22.2158 67.5343C26.3104 68.7576 28.9335 69.3946 39.5506 71.7451C50.6571 74.2037 54.2605 75.4854 61.8467 79.6762C63.2344 80.4427 65.0628 81.453 65.9101 81.9212C67.1562 82.6104 71.5123 85.9724 71.2755 86.0629C71.2411 86.0763 69.3075 85.4452 66.9791 84.661C61.4597 82.8016 55.0481 81.8468 46.6219 81.6299C39.5095 81.4467 37.179 81.5317 37.0148 81.9813C36.717 82.7966 37.6463 83.329 39.9144 83.6425C42.2892 83.9703 43.467 84.0395 48.8978 84.1694C52.4416 84.254 56.4065 84.6859 59.587 85.3336C62.6115 85.9498 66.1627 87.1716 66.0251 87.5491C65.7746 88.2349 56.973 88.8856 52.6213 88.54C47.0937 88.101 40.222 86.0274 36.1996 83.5844C30.8717 80.3488 25.8769 76.5959 23.5297 74.0656C22.7931 73.2712 21.6909 72.2254 21.0808 71.7419C19.7064 70.6524 15.0061 65.908 15.0856 65.6903C15.1174 65.6026 15.7934 65.7002 16.5874 65.9076ZM126.021 29.765C126.236 30.2295 124.207 34.7081 122.496 37.5438C121.62 38.9947 119.908 41.3132 118.69 42.6957C115.927 45.8327 108.416 52.7862 107.702 52.8675C107.37 52.9055 111.67 41.8113 113.06 39.0454C114.028 37.1199 115.1 36.2242 119.683 33.5132C121.304 32.5538 123.313 31.2777 124.147 30.6772C125.979 29.3582 125.859 29.4167 126.021 29.765ZM108.974 41.604C109.004 41.667 107.737 45.2979 106.159 49.6727C104.44 54.4394 102.884 58.14 102.278 58.9069C100.86 60.6991 95.9633 68.7455 95.6252 69.8386C95.0819 71.5923 94.8202 70.9608 95.1436 68.6752C95.9514 62.9619 98.3611 56.1527 101.476 50.7816C103.565 47.1793 108.665 40.9377 108.974 41.604ZM127.41 35.6325C127.785 38.4014 126.826 45.6398 125.689 48.6179C123.702 53.8208 120.147 58.3759 115.602 61.5442C113.376 63.0953 111.732 63.9233 106.03 66.3659C102.244 67.9878 99.0354 69.2723 98.901 69.2209C98.7665 69.1692 98.8433 68.8009 99.0716 68.4027C99.2999 68.0045 99.9233 66.8855 100.457 65.916C101.996 63.1213 106.253 57.9595 109.407 55.0634C111 53.6005 114.056 50.792 116.197 48.823C120.38 44.9777 123.316 41.4144 125.552 37.4699C126.323 36.1108 127.032 34.9626 127.128 34.918C127.223 34.8735 127.35 35.1948 127.41 35.6325ZM133.405 70.447C134.45 70.4141 134.45 70.4141 132.977 73.1654C132.168 74.6784 130.856 77.2474 130.062 78.8745C129.268 80.5012 127.391 83.5576 125.891 85.6664C122.956 89.7908 120.801 93.5806 119.075 97.6491C116.923 102.723 117.224 102.488 116.268 99.8423C114.224 94.1765 113.74 88.9379 114.851 84.4879C115.611 81.4423 116.293 80.5584 120.547 77.1073C123.525 74.691 124.42 74.1394 128.142 72.4239C130.713 71.239 132.768 70.4669 133.405 70.447ZM142.337 68.0922C145.858 67.3223 150.678 66.5061 150.611 66.6911C150.439 67.1598 144.584 71.2597 140.365 73.865C137.617 75.5618 134.927 77.2514 134.387 77.6197C133.485 78.2346 133.421 78.2293 133.599 77.555C133.813 76.7425 136.363 71.9675 137.469 70.3078C138.315 69.0401 138.604 68.9085 142.337 68.0922ZM46.6255 118.119C48.3492 118.908 51.4896 120.945 54.9796 123.537C58.0553 125.821 61.7867 128.563 63.2715 129.629C68.5842 133.446 69.8787 134.45 69.6274 134.56C69.4872 134.622 68.4052 134.593 67.2235 134.497C63.34 134.179 57.1203 134.106 55.1302 134.354C51.4218 134.816 51.3283 134.782 50.025 132.517C48.7188 130.247 43.3409 117.097 43.6586 116.949C43.7714 116.897 45.1065 117.423 46.6255 118.119ZM112.019 86.1443C112.076 86.2667 112.009 87.1998 111.87 88.2177C111.558 90.5096 112.673 97.5415 114.101 102.284C114.681 104.211 115.188 106.245 115.228 106.804C115.362 108.658 113.31 117.554 110.863 125.73C110.072 128.372 109.176 131.717 108.872 133.164C108.566 134.614 108.145 135.732 107.932 135.654C107.488 135.492 104.343 125.185 103.937 122.561C103.077 117.008 102.945 109.747 103.616 104.975C104.376 99.5648 107.26 92.406 110.489 87.9074C111.273 86.8152 111.962 86.0217 112.019 86.1443ZM152.897 68.9783C152.979 69.1539 151.289 79.3594 150.707 82.2028C150.073 85.3067 148.072 90.8547 146.651 93.4523C144.922 96.6136 142.609 99.5849 139.696 102.389C136.847 105.13 135.934 105.78 129.091 109.93C126.108 111.739 123.202 113.583 122.633 114.027C122.064 114.471 121.555 114.738 121.501 114.622C121.244 114.069 123.629 108.392 125.159 105.918C127.016 102.913 130.704 98.6852 133.126 96.7827C136.154 94.4053 136.661 92.7993 134.075 93.7763C131.039 94.9231 125.225 100.702 122.963 104.821C121.31 107.832 119.831 111.554 119.362 113.883C118.8 116.678 118.724 116.821 116.963 118.397C115.211 119.964 115.168 119.959 115.532 118.203C118.75 102.685 122.952 92.8522 129.641 85.1867C131.684 82.8455 132.572 82.1294 137.276 79.0324C140.204 77.1046 144.796 74.0675 147.481 72.283C152.799 68.7483 152.792 68.7524 152.897 68.9783ZM58.4314 119.224C60.5487 119.332 63.0797 119.526 64.056 119.655C71.0538 120.582 78.1204 123.131 83.2749 126.587C84.3398 127.301 85.4386 128.033 85.7169 128.214C86.956 129.019 91.0268 132.95 92.5475 134.81C96.227 139.311 101.752 148.81 102.169 151.353C102.307 152.197 102.307 152.197 101.348 151.601C100.82 151.273 98.8564 149.862 96.9841 148.465C93.2057 145.644 87.3783 141.798 83.5132 139.574C78.3774 136.618 72.1228 132.768 69.9467 131.224C68.7151 130.349 66.6949 128.921 65.4578 128.049C61.588 125.322 54.4099 119.871 54.2574 119.543C54.0249 119.043 54.3675 119.017 58.4314 119.224ZM53.3034 136.892C53.6275 136.922 55.3831 136.878 57.2048 136.795C66.4656 136.372 73.6864 137.704 80.6111 141.111C83.6571 142.61 91.5875 147.5 93.8168 149.254C95.1928 150.336 95.313 150.505 94.7253 150.53C94.3528 150.546 92.8246 150.656 91.3292 150.775C78.2416 151.81 72.417 151.225 66.0714 148.235C61.6282 146.141 55.7711 141.503 53.7329 138.464C53.1297 137.565 52.6538 136.831 52.6752 136.833C52.6968 136.835 52.9794 136.862 53.3034 136.892ZM172.697 105.907C176.511 114.119 177.118 122.662 174.372 129.477C173.214 132.35 170.263 138.907 167.107 145.621C165.925 148.134 163.568 153.356 161.868 157.225C159.024 163.698 154.656 172.081 153.959 172.405C153.585 172.579 153.671 171.838 154.419 168.433C154.748 166.936 155.119 164.819 155.245 163.727C155.705 159.718 156.134 157.074 156.817 154.042C157.201 152.335 157.596 149.99 157.695 148.829C157.888 146.549 158.085 137.528 157.948 137.234C157.739 136.786 158.077 128.7 158.407 126.255C158.609 124.758 159.295 122.128 159.932 120.41C160.856 117.916 161.478 116.865 163.018 115.185C166.981 110.865 169.289 107.381 170.341 104.131C170.547 103.496 170.829 102.923 170.97 102.857C171.11 102.792 171.887 104.164 172.697 105.907ZM157.002 121.116C156.876 121.7 156.542 123.187 156.26 124.419C155.717 126.79 155.381 132.721 155.509 137.671C155.649 143.084 155.478 147.889 155.07 150.036C154.849 151.202 154.634 152.172 154.594 152.19C154.554 152.209 153.254 149.473 151.706 146.11C150.158 142.747 148.055 138.517 147.032 136.71C145.351 133.74 145.17 133.265 145.143 131.763C145.114 130.117 145.139 130.078 147.722 127.698C149.156 126.377 151.652 124.319 153.267 123.125C154.883 121.932 156.435 120.752 156.717 120.504C157.223 120.059 157.227 120.068 157.002 121.116ZM147.608 143.693C152.601 154.432 152.601 154.432 152.862 157.318C153.005 158.905 153.1 160.89 153.073 161.73C153.019 163.447 152.514 166.031 152.252 165.936C152.158 165.901 151.502 164.806 150.794 163.502C146.962 156.441 141.636 151.64 134.389 148.716C132.771 148.064 132.771 148.064 133.542 146.103C133.966 145.025 135.027 142.965 135.902 141.525C137.498 138.895 141.671 133.393 142.286 133.107C142.513 133.002 144.172 136.302 147.608 143.693ZM134.493 151.33C135.614 151.811 137.625 152.98 138.961 153.929C144.406 157.796 147.838 162.175 149.615 167.525C151.052 171.849 150.96 174.274 149.137 180.104C147.137 186.502 146.397 189.244 145.286 194.377C144.777 196.728 144.284 198.77 144.189 198.913C144.095 199.057 143.21 197.907 142.224 196.358C141.238 194.809 139.966 192.827 139.397 191.955C137.184 188.557 133.467 181.007 132.364 177.667C130.289 171.381 129.444 162.639 130.359 156.925C130.904 153.525 131.642 150.835 132.085 150.629C132.289 150.534 133.372 150.85 134.493 151.33ZM174.946 134.992C174.99 135.087 175.258 136.793 175.542 138.782C175.826 140.771 176.269 143.738 176.527 145.375C178.007 154.751 178.167 159.46 177.166 164.129C176.342 167.975 175.513 170.312 173.854 173.466C171.956 177.075 169.611 179.932 165.746 183.347C162.512 186.204 162.459 186.237 155.529 189.627C150.451 192.112 148.519 192.94 148.4 192.684C148.197 192.247 148.922 189.164 150.252 184.805C152.285 178.148 154.615 175.156 161.625 170.202C170.929 163.627 173.983 161.038 174.585 159.214C174.906 158.243 174.883 158.166 174.288 158.208C173.934 158.232 172.059 159.438 170.121 160.887C166.253 163.78 160.534 167.845 159.944 168.119C159.738 168.215 160.464 166.313 161.557 163.892C162.651 161.472 164.93 156.395 166.622 152.611C169.407 146.385 172.857 138.905 174.309 135.949C174.615 135.327 174.901 134.896 174.946 134.992ZM84.8946 181.067C90.2799 179.654 94.9452 179.446 100.078 180.39C107.291 181.716 115.455 187.09 120.002 193.506C122.504 197.037 125.498 202.254 125.576 203.22C125.638 203.974 125.457 203.891 123.815 202.41C122.808 201.503 121.044 200.168 119.894 199.444C118.744 198.72 117.251 197.606 116.575 196.968C110.48 191.205 105.716 188.154 99.3544 185.939C92.9486 183.709 87.2919 182.765 81.487 182.958C79.4513 183.025 79.4513 183.025 80.8488 182.393C81.6174 182.046 83.4381 181.449 84.8946 181.067ZM75.3901 186.197C81.1227 184.743 91.774 185.771 98.9941 188.474C102.656 189.846 110.332 194.193 109.65 194.51C109.463 194.597 105.293 194.676 104.195 194.613C102.171 194.497 99.0093 195.24 88.6291 198.271C82.2828 200.124 80.4424 200.451 76.8398 200.366C71.6326 200.243 68.8018 199.459 62.7346 196.463C61.1519 195.681 59.3813 194.813 58.8007 194.534C57.7447 194.026 57.7447 194.026 65.3451 190.421C70.7215 187.871 73.661 186.636 75.3901 186.197ZM75.6089 203.054C78.6548 203.227 85.1085 202.195 89.0774 200.9C96.9802 198.321 98.2301 197.985 101.669 197.519C108.453 196.599 113.389 197.75 117.866 201.294C119.146 202.308 120.088 203.187 119.958 203.246C119.829 203.306 119.096 203.28 118.33 203.189C116.45 202.965 111.449 203.137 109.082 203.506C106.496 203.91 98.2614 207.639 97.7975 208.617C97.6248 208.981 97.565 209.454 97.6646 209.668C97.9308 210.241 100.573 209.629 103.329 208.356C106.271 206.997 109.752 205.919 112.136 205.629C113.898 205.415 119.176 205.949 119.914 206.418C120.832 206.999 114.908 209.848 109.097 211.62C105.02 212.863 96.1908 213.05 91.6032 211.991C86.5078 210.813 78.9836 207.301 75.112 204.292C73.6137 203.128 73.6871 202.944 75.6089 203.054Z" fill="#364248"/>
</svg>
